<?xml version="1.0" encoding="UTF-8" standalone="no"?>
<!DOCTYPE svg PUBLIC "-//W3C//DTD SVG 1.1//EN"
 "http://www.w3.org/Graphics/SVG/1.1/DTD/svg11.dtd">
<!-- Generated by graphviz version 2.40.1 (20161225.0304)
 -->
<!-- Title: Tree Pages: 1 -->
<svg width="1515pt" height="845pt"
 viewBox="0.00 0.00 1515.10 844.80" xmlns="http://www.w3.org/2000/svg" xmlns:xlink="http://www.w3.org/1999/xlink">
<g id="graph0" class="graph" transform="scale(1 1) rotate(0) translate(4 840.8)">
<title>Tree</title>
<polygon fill="#ffffff" stroke="transparent" points="-4,4 -4,-840.8 1511.103,-840.8 1511.103,4 -4,4"/>
<!-- 0 -->
<g id="node1" class="node">
<title>0</title>
<path fill="#88c4ef" stroke="#000000" d="M919.4589,-836.9003C919.4589,-836.9003 784.8615,-836.9003 784.8615,-836.9003 778.8615,-836.9003 772.8615,-830.9003 772.8615,-824.9003 772.8615,-824.9003 772.8615,-773.4997 772.8615,-773.4997 772.8615,-767.4997 778.8615,-761.4997 784.8615,-761.4997 784.8615,-761.4997 919.4589,-761.4997 919.4589,-761.4997 925.4589,-761.4997 931.4589,-767.4997 931.4589,-773.4997 931.4589,-773.4997 931.4589,-824.9003 931.4589,-824.9003 931.4589,-830.9003 925.4589,-836.9003 919.4589,-836.9003"/>
<text text-anchor="middle" x="852.1602" y="-820.2" font-family="Helvetica,sans-Serif" font-size="14.00" fill="#000000">CNT &lt;= 5743.5</text>
<text text-anchor="middle" x="852.1602" y="-803.4" font-family="Helvetica,sans-Serif" font-size="14.00" fill="#000000">gini = 0.408</text>
<text text-anchor="middle" x="852.1602" y="-786.6" font-family="Helvetica,sans-Serif" font-size="14.00" fill="#000000">samples = 62630</text>
<text text-anchor="middle" x="852.1602" y="-769.8" font-family="Helvetica,sans-Serif" font-size="14.00" fill="#000000">value = [17873, 44757]</text>
</g>
<!-- 1 -->
<g id="node2" class="node">
<title>1</title>
<path fill="#eead7e" stroke="#000000" d="M837.6762,-725.7003C837.6762,-725.7003 710.6442,-725.7003 710.6442,-725.7003 704.6442,-725.7003 698.6442,-719.7003 698.6442,-713.7003 698.6442,-713.7003 698.6442,-662.2997 698.6442,-662.2997 698.6442,-656.2997 704.6442,-650.2997 710.6442,-650.2997 710.6442,-650.2997 837.6762,-650.2997 837.6762,-650.2997 843.6762,-650.2997 849.6762,-656.2997 849.6762,-662.2997 849.6762,-662.2997 849.6762,-713.7003 849.6762,-713.7003 849.6762,-719.7003 843.6762,-725.7003 837.6762,-725.7003"/>
<text text-anchor="middle" x="774.1602" y="-709" font-family="Helvetica,sans-Serif" font-size="14.00" fill="#000000">Raw H2 &lt;= 13204.5</text>
<text text-anchor="middle" x="774.1602" y="-692.2" font-family="Helvetica,sans-Serif" font-size="14.00" fill="#000000">gini = 0.384</text>
<text text-anchor="middle" x="774.1602" y="-675.4" font-family="Helvetica,sans-Serif" font-size="14.00" fill="#000000">samples = 24130</text>
<text text-anchor="middle" x="774.1602" y="-658.6" font-family="Helvetica,sans-Serif" font-size="14.00" fill="#000000">value = [17873, 6257]</text>
</g>
<!-- 0&#45;&gt;1 -->
<g id="edge1" class="edge">
<title>0&#45;&gt;1</title>
<path fill="none" stroke="#000000" d="M825.753,-761.5528C819.5268,-752.6765 812.821,-743.1165 806.3709,-733.9209"/>
<polygon fill="#000000" stroke="#000000" points="809.1482,-731.7854 800.5402,-725.6085 803.4174,-735.8052 809.1482,-731.7854"/>
<text text-anchor="middle" x="796.2194" y="-746.0322" font-family="Helvetica,sans-Serif" font-size="14.00" fill="#000000">True</text>
</g>
<!-- 34 -->
<g id="node35" class="node">
<title>34</title>
<path fill="#399de5" stroke="#000000" d="M982.8288,-717.4014C982.8288,-717.4014 879.4916,-717.4014 879.4916,-717.4014 873.4916,-717.4014 867.4916,-711.4014 867.4916,-705.4014 867.4916,-705.4014 867.4916,-670.5986 867.4916,-670.5986 867.4916,-664.5986 873.4916,-658.5986 879.4916,-658.5986 879.4916,-658.5986 982.8288,-658.5986 982.8288,-658.5986 988.8288,-658.5986 994.8288,-664.5986 994.8288,-670.5986 994.8288,-670.5986 994.8288,-705.4014 994.8288,-705.4014 994.8288,-711.4014 988.8288,-717.4014 982.8288,-717.4014"/>
<text text-anchor="middle" x="931.1602" y="-700.6" font-family="Helvetica,sans-Serif" font-size="14.00" fill="#000000">gini = 0.0</text>
<text text-anchor="middle" x="931.1602" y="-683.8" font-family="Helvetica,sans-Serif" font-size="14.00" fill="#000000">samples = 38500</text>
<text text-anchor="middle" x="931.1602" y="-667" font-family="Helvetica,sans-Serif" font-size="14.00" fill="#000000">value = [0, 38500]</text>
</g>
<!-- 0&#45;&gt;34 -->
<g id="edge34" class="edge">
<title>0&#45;&gt;34</title>
<path fill="none" stroke="#000000" d="M878.906,-761.5528C887.1186,-749.9928 896.1551,-737.273 904.3706,-725.7089"/>
<polygon fill="#000000" stroke="#000000" points="907.2458,-727.7051 910.1841,-717.5258 901.5392,-723.651 907.2458,-727.7051"/>
<text text-anchor="middle" x="914.3571" y="-737.9751" font-family="Helvetica,sans-Serif" font-size="14.00" fill="#000000">False</text>
</g>
<!-- 2 -->
<g id="node3" class="node">
<title>2</title>
<path fill="#e99254" stroke="#000000" d="M572.0659,-614.5003C572.0659,-614.5003 416.2545,-614.5003 416.2545,-614.5003 410.2545,-614.5003 404.2545,-608.5003 404.2545,-602.5003 404.2545,-602.5003 404.2545,-551.0997 404.2545,-551.0997 404.2545,-545.0997 410.2545,-539.0997 416.2545,-539.0997 416.2545,-539.0997 572.0659,-539.0997 572.0659,-539.0997 578.0659,-539.0997 584.0659,-545.0997 584.0659,-551.0997 584.0659,-551.0997 584.0659,-602.5003 584.0659,-602.5003 584.0659,-608.5003 578.0659,-614.5003 572.0659,-614.5003"/>
<text text-anchor="middle" x="494.1602" y="-597.8" font-family="Helvetica,sans-Serif" font-size="14.00" fill="#000000">Pressure[hPa] &lt;= 933.979</text>
<text text-anchor="middle" x="494.1602" y="-581" font-family="Helvetica,sans-Serif" font-size="14.00" fill="#000000">gini = 0.209</text>
<text text-anchor="middle" x="494.1602" y="-564.2" font-family="Helvetica,sans-Serif" font-size="14.00" fill="#000000">samples = 17315</text>
<text text-anchor="middle" x="494.1602" y="-547.4" font-family="Helvetica,sans-Serif" font-size="14.00" fill="#000000">value = [15257, 2058]</text>
</g>
<!-- 1&#45;&gt;2 -->
<g id="edge2" class="edge">
<title>1&#45;&gt;2</title>
<path fill="none" stroke="#000000" d="M698.3882,-657.9077C666.1152,-645.0907 628.0287,-629.9649 593.5421,-616.2688"/>
<polygon fill="#000000" stroke="#000000" points="594.5041,-612.885 583.9183,-612.4468 591.9204,-619.3907 594.5041,-612.885"/>
</g>
<!-- 21 -->
<g id="node22" class="node">
<title>21</title>
<path fill="#b4daf5" stroke="#000000" d="M1138.7832,-614.5003C1138.7832,-614.5003 991.5372,-614.5003 991.5372,-614.5003 985.5372,-614.5003 979.5372,-608.5003 979.5372,-602.5003 979.5372,-602.5003 979.5372,-551.0997 979.5372,-551.0997 979.5372,-545.0997 985.5372,-539.0997 991.5372,-539.0997 991.5372,-539.0997 1138.7832,-539.0997 1138.7832,-539.0997 1144.7832,-539.0997 1150.7832,-545.0997 1150.7832,-551.0997 1150.7832,-551.0997 1150.7832,-602.5003 1150.7832,-602.5003 1150.7832,-608.5003 1144.7832,-614.5003 1138.7832,-614.5003"/>
<text text-anchor="middle" x="1065.1602" y="-597.8" font-family="Helvetica,sans-Serif" font-size="14.00" fill="#000000">Pressure[hPa] &lt;= 939.62</text>
<text text-anchor="middle" x="1065.1602" y="-581" font-family="Helvetica,sans-Serif" font-size="14.00" fill="#000000">gini = 0.473</text>
<text text-anchor="middle" x="1065.1602" y="-564.2" font-family="Helvetica,sans-Serif" font-size="14.00" fill="#000000">samples = 6815</text>
<text text-anchor="middle" x="1065.1602" y="-547.4" font-family="Helvetica,sans-Serif" font-size="14.00" fill="#000000">value = [2616, 4199]</text>
</g>
<!-- 1&#45;&gt;21 -->
<g id="edge21" class="edge">
<title>1&#45;&gt;21</title>
<path fill="none" stroke="#000000" d="M850.0509,-653.7062C852.7813,-652.5756 855.4907,-651.4701 858.1602,-650.4 894.2423,-635.9363 934.4035,-621.3237 969.677,-608.9732"/>
<polygon fill="#000000" stroke="#000000" points="971.1989,-612.1493 979.4889,-605.5517 968.894,-605.5396 971.1989,-612.1493"/>
</g>
<!-- 3 -->
<g id="node4" class="node">
<title>3</title>
<path fill="#3d9fe6" stroke="#000000" d="M311.0459,-503.3003C311.0459,-503.3003 215.2745,-503.3003 215.2745,-503.3003 209.2745,-503.3003 203.2745,-497.3003 203.2745,-491.3003 203.2745,-491.3003 203.2745,-439.8997 203.2745,-439.8997 203.2745,-433.8997 209.2745,-427.8997 215.2745,-427.8997 215.2745,-427.8997 311.0459,-427.8997 311.0459,-427.8997 317.0459,-427.8997 323.0459,-433.8997 323.0459,-439.8997 323.0459,-439.8997 323.0459,-491.3003 323.0459,-491.3003 323.0459,-497.3003 317.0459,-503.3003 311.0459,-503.3003"/>
<text text-anchor="middle" x="263.1602" y="-486.6" font-family="Helvetica,sans-Serif" font-size="14.00" fill="#000000">CNT &lt;= 36.5</text>
<text text-anchor="middle" x="263.1602" y="-469.8" font-family="Helvetica,sans-Serif" font-size="14.00" fill="#000000">gini = 0.041</text>
<text text-anchor="middle" x="263.1602" y="-453" font-family="Helvetica,sans-Serif" font-size="14.00" fill="#000000">samples = 1011</text>
<text text-anchor="middle" x="263.1602" y="-436.2" font-family="Helvetica,sans-Serif" font-size="14.00" fill="#000000">value = [21, 990]</text>
</g>
<!-- 2&#45;&gt;3 -->
<g id="edge3" class="edge">
<title>2&#45;&gt;3</title>
<path fill="none" stroke="#000000" d="M415.9541,-539.1528C388.9078,-526.133 358.8051,-511.642 332.5184,-498.988"/>
<polygon fill="#000000" stroke="#000000" points="333.9194,-495.778 323.3909,-494.5942 330.8831,-502.0853 333.9194,-495.778"/>
</g>
<!-- 6 -->
<g id="node7" class="node">
<title>6</title>
<path fill="#e78a47" stroke="#000000" d="M560.7567,-503.3003C560.7567,-503.3003 427.5637,-503.3003 427.5637,-503.3003 421.5637,-503.3003 415.5637,-497.3003 415.5637,-491.3003 415.5637,-491.3003 415.5637,-439.8997 415.5637,-439.8997 415.5637,-433.8997 421.5637,-427.8997 427.5637,-427.8997 427.5637,-427.8997 560.7567,-427.8997 560.7567,-427.8997 566.7567,-427.8997 572.7567,-433.8997 572.7567,-439.8997 572.7567,-439.8997 572.7567,-491.3003 572.7567,-491.3003 572.7567,-497.3003 566.7567,-503.3003 560.7567,-503.3003"/>
<text text-anchor="middle" x="494.1602" y="-486.6" font-family="Helvetica,sans-Serif" font-size="14.00" fill="#000000">Humidity[%] &lt;= 57.445</text>
<text text-anchor="middle" x="494.1602" y="-469.8" font-family="Helvetica,sans-Serif" font-size="14.00" fill="#000000">gini = 0.122</text>
<text text-anchor="middle" x="494.1602" y="-453" font-family="Helvetica,sans-Serif" font-size="14.00" fill="#000000">samples = 16304</text>
<text text-anchor="middle" x="494.1602" y="-436.2" font-family="Helvetica,sans-Serif" font-size="14.00" fill="#000000">value = [15236, 1068]</text>
</g>
<!-- 2&#45;&gt;6 -->
<g id="edge6" class="edge">
<title>2&#45;&gt;6</title>
<path fill="none" stroke="#000000" d="M494.1602,-539.1528C494.1602,-530.82 494.1602,-521.8845 494.1602,-513.2137"/>
<polygon fill="#000000" stroke="#000000" points="497.6603,-513.2084 494.1602,-503.2085 490.6603,-513.2085 497.6603,-513.2084"/>
</g>
<!-- 4 -->
<g id="node5" class="node">
<title>4</title>
<path fill="#e58139" stroke="#000000" d="M177.4811,-383.8014C177.4811,-383.8014 96.8393,-383.8014 96.8393,-383.8014 90.8393,-383.8014 84.8393,-377.8014 84.8393,-371.8014 84.8393,-371.8014 84.8393,-336.9986 84.8393,-336.9986 84.8393,-330.9986 90.8393,-324.9986 96.8393,-324.9986 96.8393,-324.9986 177.4811,-324.9986 177.4811,-324.9986 183.4811,-324.9986 189.4811,-330.9986 189.4811,-336.9986 189.4811,-336.9986 189.4811,-371.8014 189.4811,-371.8014 189.4811,-377.8014 183.4811,-383.8014 177.4811,-383.8014"/>
<text text-anchor="middle" x="137.1602" y="-367" font-family="Helvetica,sans-Serif" font-size="14.00" fill="#000000">gini = 0.0</text>
<text text-anchor="middle" x="137.1602" y="-350.2" font-family="Helvetica,sans-Serif" font-size="14.00" fill="#000000">samples = 21</text>
<text text-anchor="middle" x="137.1602" y="-333.4" font-family="Helvetica,sans-Serif" font-size="14.00" fill="#000000">value = [21, 0]</text>
</g>
<!-- 3&#45;&gt;4 -->
<g id="edge4" class="edge">
<title>3&#45;&gt;4</title>
<path fill="none" stroke="#000000" d="M220.5023,-427.9528C206.8952,-415.9439 191.8697,-402.6833 178.3674,-390.767"/>
<polygon fill="#000000" stroke="#000000" points="180.4294,-387.9187 170.6157,-383.9258 175.7975,-393.1671 180.4294,-387.9187"/>
</g>
<!-- 5 -->
<g id="node6" class="node">
<title>5</title>
<path fill="#399de5" stroke="#000000" d="M307.2632,-383.8014C307.2632,-383.8014 219.0572,-383.8014 219.0572,-383.8014 213.0572,-383.8014 207.0572,-377.8014 207.0572,-371.8014 207.0572,-371.8014 207.0572,-336.9986 207.0572,-336.9986 207.0572,-330.9986 213.0572,-324.9986 219.0572,-324.9986 219.0572,-324.9986 307.2632,-324.9986 307.2632,-324.9986 313.2632,-324.9986 319.2632,-330.9986 319.2632,-336.9986 319.2632,-336.9986 319.2632,-371.8014 319.2632,-371.8014 319.2632,-377.8014 313.2632,-383.8014 307.2632,-383.8014"/>
<text text-anchor="middle" x="263.1602" y="-367" font-family="Helvetica,sans-Serif" font-size="14.00" fill="#000000">gini = 0.0</text>
<text text-anchor="middle" x="263.1602" y="-350.2" font-family="Helvetica,sans-Serif" font-size="14.00" fill="#000000">samples = 990</text>
<text text-anchor="middle" x="263.1602" y="-333.4" font-family="Helvetica,sans-Serif" font-size="14.00" fill="#000000">value = [0, 990]</text>
</g>
<!-- 3&#45;&gt;5 -->
<g id="edge5" class="edge">
<title>3&#45;&gt;5</title>
<path fill="none" stroke="#000000" d="M263.1602,-427.9528C263.1602,-417.0662 263.1602,-405.151 263.1602,-394.1411"/>
<polygon fill="#000000" stroke="#000000" points="266.6603,-393.9258 263.1602,-383.9258 259.6603,-393.9259 266.6603,-393.9258"/>
</g>
<!-- 7 -->
<g id="node8" class="node">
<title>7</title>
<path fill="#e68742" stroke="#000000" d="M468.8938,-392.1003C468.8938,-392.1003 349.4266,-392.1003 349.4266,-392.1003 343.4266,-392.1003 337.4266,-386.1003 337.4266,-380.1003 337.4266,-380.1003 337.4266,-328.6997 337.4266,-328.6997 337.4266,-322.6997 343.4266,-316.6997 349.4266,-316.6997 349.4266,-316.6997 468.8938,-316.6997 468.8938,-316.6997 474.8938,-316.6997 480.8938,-322.6997 480.8938,-328.6997 480.8938,-328.6997 480.8938,-380.1003 480.8938,-380.1003 480.8938,-386.1003 474.8938,-392.1003 468.8938,-392.1003"/>
<text text-anchor="middle" x="409.1602" y="-375.4" font-family="Helvetica,sans-Serif" font-size="14.00" fill="#000000">CNT &lt;= 3319.5</text>
<text text-anchor="middle" x="409.1602" y="-358.6" font-family="Helvetica,sans-Serif" font-size="14.00" fill="#000000">gini = 0.083</text>
<text text-anchor="middle" x="409.1602" y="-341.8" font-family="Helvetica,sans-Serif" font-size="14.00" fill="#000000">samples = 15854</text>
<text text-anchor="middle" x="409.1602" y="-325" font-family="Helvetica,sans-Serif" font-size="14.00" fill="#000000">value = [15162, 692]</text>
</g>
<!-- 6&#45;&gt;7 -->
<g id="edge7" class="edge">
<title>6&#45;&gt;7</title>
<path fill="none" stroke="#000000" d="M465.3831,-427.9528C458.529,-418.986 451.1414,-409.3213 444.0465,-400.0395"/>
<polygon fill="#000000" stroke="#000000" points="446.7613,-397.8278 437.9077,-392.0085 441.2,-402.0788 446.7613,-397.8278"/>
</g>
<!-- 16 -->
<g id="node17" class="node">
<title>16</title>
<path fill="#60b0ea" stroke="#000000" d="M627.6533,-392.1003C627.6533,-392.1003 510.6671,-392.1003 510.6671,-392.1003 504.6671,-392.1003 498.6671,-386.1003 498.6671,-380.1003 498.6671,-380.1003 498.6671,-328.6997 498.6671,-328.6997 498.6671,-322.6997 504.6671,-316.6997 510.6671,-316.6997 510.6671,-316.6997 627.6533,-316.6997 627.6533,-316.6997 633.6533,-316.6997 639.6533,-322.6997 639.6533,-328.6997 639.6533,-328.6997 639.6533,-380.1003 639.6533,-380.1003 639.6533,-386.1003 633.6533,-392.1003 627.6533,-392.1003"/>
<text text-anchor="middle" x="569.1602" y="-375.4" font-family="Helvetica,sans-Serif" font-size="14.00" fill="#000000">Raw H2 &lt;= 13089.0</text>
<text text-anchor="middle" x="569.1602" y="-358.6" font-family="Helvetica,sans-Serif" font-size="14.00" fill="#000000">gini = 0.275</text>
<text text-anchor="middle" x="569.1602" y="-341.8" font-family="Helvetica,sans-Serif" font-size="14.00" fill="#000000">samples = 450</text>
<text text-anchor="middle" x="569.1602" y="-325" font-family="Helvetica,sans-Serif" font-size="14.00" fill="#000000">value = [74, 376]</text>
</g>
<!-- 6&#45;&gt;16 -->
<g id="edge16" class="edge">
<title>6&#45;&gt;16</title>
<path fill="none" stroke="#000000" d="M519.5518,-427.9528C525.5384,-419.0765 531.9863,-409.5165 538.1884,-400.3209"/>
<polygon fill="#000000" stroke="#000000" points="541.1048,-402.2561 543.7948,-392.0085 535.3014,-398.342 541.1048,-402.2561"/>
</g>
<!-- 8 -->
<g id="node9" class="node">
<title>8</title>
<path fill="#e58139" stroke="#000000" d="M288.8288,-280.9003C288.8288,-280.9003 185.4916,-280.9003 185.4916,-280.9003 179.4916,-280.9003 173.4916,-274.9003 173.4916,-268.9003 173.4916,-268.9003 173.4916,-217.4997 173.4916,-217.4997 173.4916,-211.4997 179.4916,-205.4997 185.4916,-205.4997 185.4916,-205.4997 288.8288,-205.4997 288.8288,-205.4997 294.8288,-205.4997 300.8288,-211.4997 300.8288,-217.4997 300.8288,-217.4997 300.8288,-268.9003 300.8288,-268.9003 300.8288,-274.9003 294.8288,-280.9003 288.8288,-280.9003"/>
<text text-anchor="middle" x="237.1602" y="-264.2" font-family="Helvetica,sans-Serif" font-size="14.00" fill="#000000">CNT &lt;= 4.5</text>
<text text-anchor="middle" x="237.1602" y="-247.4" font-family="Helvetica,sans-Serif" font-size="14.00" fill="#000000">gini = 0.001</text>
<text text-anchor="middle" x="237.1602" y="-230.6" font-family="Helvetica,sans-Serif" font-size="14.00" fill="#000000">samples = 12542</text>
<text text-anchor="middle" x="237.1602" y="-213.8" font-family="Helvetica,sans-Serif" font-size="14.00" fill="#000000">value = [12538, 4]</text>
</g>
<!-- 7&#45;&gt;8 -->
<g id="edge8" class="edge">
<title>7&#45;&gt;8</title>
<path fill="none" stroke="#000000" d="M350.9288,-316.7528C335.7985,-306.9708 319.3835,-296.3583 303.8541,-286.3184"/>
<polygon fill="#000000" stroke="#000000" points="305.6297,-283.2986 295.3316,-280.8085 301.8291,-289.177 305.6297,-283.2986"/>
</g>
<!-- 13 -->
<g id="node14" class="node">
<title>13</title>
<path fill="#eca26d" stroke="#000000" d="M487.0659,-280.9003C487.0659,-280.9003 331.2545,-280.9003 331.2545,-280.9003 325.2545,-280.9003 319.2545,-274.9003 319.2545,-268.9003 319.2545,-268.9003 319.2545,-217.4997 319.2545,-217.4997 319.2545,-211.4997 325.2545,-205.4997 331.2545,-205.4997 331.2545,-205.4997 487.0659,-205.4997 487.0659,-205.4997 493.0659,-205.4997 499.0659,-211.4997 499.0659,-217.4997 499.0659,-217.4997 499.0659,-268.9003 499.0659,-268.9003 499.0659,-274.9003 493.0659,-280.9003 487.0659,-280.9003"/>
<text text-anchor="middle" x="409.1602" y="-264.2" font-family="Helvetica,sans-Serif" font-size="14.00" fill="#000000">Pressure[hPa] &lt;= 938.561</text>
<text text-anchor="middle" x="409.1602" y="-247.4" font-family="Helvetica,sans-Serif" font-size="14.00" fill="#000000">gini = 0.329</text>
<text text-anchor="middle" x="409.1602" y="-230.6" font-family="Helvetica,sans-Serif" font-size="14.00" fill="#000000">samples = 3312</text>
<text text-anchor="middle" x="409.1602" y="-213.8" font-family="Helvetica,sans-Serif" font-size="14.00" fill="#000000">value = [2624, 688]</text>
</g>
<!-- 7&#45;&gt;13 -->
<g id="edge13" class="edge">
<title>7&#45;&gt;13</title>
<path fill="none" stroke="#000000" d="M409.1602,-316.7528C409.1602,-308.42 409.1602,-299.4845 409.1602,-290.8137"/>
<polygon fill="#000000" stroke="#000000" points="412.6603,-290.8084 409.1602,-280.8085 405.6603,-290.8085 412.6603,-290.8084"/>
</g>
<!-- 9 -->
<g id="node10" class="node">
<title>9</title>
<path fill="#eca06a" stroke="#000000" d="M151.4811,-169.7003C151.4811,-169.7003 70.8393,-169.7003 70.8393,-169.7003 64.8393,-169.7003 58.8393,-163.7003 58.8393,-157.7003 58.8393,-157.7003 58.8393,-106.2997 58.8393,-106.2997 58.8393,-100.2997 64.8393,-94.2997 70.8393,-94.2997 70.8393,-94.2997 151.4811,-94.2997 151.4811,-94.2997 157.4811,-94.2997 163.4811,-100.2997 163.4811,-106.2997 163.4811,-106.2997 163.4811,-157.7003 163.4811,-157.7003 163.4811,-163.7003 157.4811,-169.7003 151.4811,-169.7003"/>
<text text-anchor="middle" x="111.1602" y="-153" font-family="Helvetica,sans-Serif" font-size="14.00" fill="#000000">PM2.5 &lt;= 2.3</text>
<text text-anchor="middle" x="111.1602" y="-136.2" font-family="Helvetica,sans-Serif" font-size="14.00" fill="#000000">gini = 0.32</text>
<text text-anchor="middle" x="111.1602" y="-119.4" font-family="Helvetica,sans-Serif" font-size="14.00" fill="#000000">samples = 20</text>
<text text-anchor="middle" x="111.1602" y="-102.6" font-family="Helvetica,sans-Serif" font-size="14.00" fill="#000000">value = [16, 4]</text>
</g>
<!-- 8&#45;&gt;9 -->
<g id="edge9" class="edge">
<title>8&#45;&gt;9</title>
<path fill="none" stroke="#000000" d="M194.5023,-205.5528C183.829,-196.1331 172.283,-185.9433 161.284,-176.2362"/>
<polygon fill="#000000" stroke="#000000" points="163.5878,-173.6013 153.7741,-169.6085 158.9559,-178.8497 163.5878,-173.6013"/>
</g>
<!-- 12 -->
<g id="node13" class="node">
<title>12</title>
<path fill="#e58139" stroke="#000000" d="M296.8288,-161.4014C296.8288,-161.4014 193.4916,-161.4014 193.4916,-161.4014 187.4916,-161.4014 181.4916,-155.4014 181.4916,-149.4014 181.4916,-149.4014 181.4916,-114.5986 181.4916,-114.5986 181.4916,-108.5986 187.4916,-102.5986 193.4916,-102.5986 193.4916,-102.5986 296.8288,-102.5986 296.8288,-102.5986 302.8288,-102.5986 308.8288,-108.5986 308.8288,-114.5986 308.8288,-114.5986 308.8288,-149.4014 308.8288,-149.4014 308.8288,-155.4014 302.8288,-161.4014 296.8288,-161.4014"/>
<text text-anchor="middle" x="245.1602" y="-144.6" font-family="Helvetica,sans-Serif" font-size="14.00" fill="#000000">gini = 0.0</text>
<text text-anchor="middle" x="245.1602" y="-127.8" font-family="Helvetica,sans-Serif" font-size="14.00" fill="#000000">samples = 12522</text>
<text text-anchor="middle" x="245.1602" y="-111" font-family="Helvetica,sans-Serif" font-size="14.00" fill="#000000">value = [12522, 0]</text>
</g>
<!-- 8&#45;&gt;12 -->
<g id="edge12" class="edge">
<title>8&#45;&gt;12</title>
<path fill="none" stroke="#000000" d="M239.8686,-205.5528C240.6518,-194.6662 241.5091,-182.751 242.3011,-171.7411"/>
<polygon fill="#000000" stroke="#000000" points="245.8094,-171.7512 243.036,-161.5258 238.8274,-171.2489 245.8094,-171.7512"/>
</g>
<!-- 10 -->
<g id="node11" class="node">
<title>10</title>
<path fill="#e58139" stroke="#000000" d="M92.4811,-58.6014C92.4811,-58.6014 11.8393,-58.6014 11.8393,-58.6014 5.8393,-58.6014 -.1607,-52.6014 -.1607,-46.6014 -.1607,-46.6014 -.1607,-11.7986 -.1607,-11.7986 -.1607,-5.7986 5.8393,.2014 11.8393,.2014 11.8393,.2014 92.4811,.2014 92.4811,.2014 98.4811,.2014 104.4811,-5.7986 104.4811,-11.7986 104.4811,-11.7986 104.4811,-46.6014 104.4811,-46.6014 104.4811,-52.6014 98.4811,-58.6014 92.4811,-58.6014"/>
<text text-anchor="middle" x="52.1602" y="-41.8" font-family="Helvetica,sans-Serif" font-size="14.00" fill="#000000">gini = 0.0</text>
<text text-anchor="middle" x="52.1602" y="-25" font-family="Helvetica,sans-Serif" font-size="14.00" fill="#000000">samples = 16</text>
<text text-anchor="middle" x="52.1602" y="-8.2" font-family="Helvetica,sans-Serif" font-size="14.00" fill="#000000">value = [16, 0]</text>
</g>
<!-- 9&#45;&gt;10 -->
<g id="edge10" class="edge">
<title>9&#45;&gt;10</title>
<path fill="none" stroke="#000000" d="M89.5258,-94.3048C84.4976,-85.5437 79.1404,-76.2096 74.0992,-67.4259"/>
<polygon fill="#000000" stroke="#000000" points="77.0004,-65.4495 68.987,-58.5186 70.9292,-68.9339 77.0004,-65.4495"/>
</g>
<!-- 11 -->
<g id="node12" class="node">
<title>11</title>
<path fill="#399de5" stroke="#000000" d="M206.1991,-58.6014C206.1991,-58.6014 134.1213,-58.6014 134.1213,-58.6014 128.1213,-58.6014 122.1213,-52.6014 122.1213,-46.6014 122.1213,-46.6014 122.1213,-11.7986 122.1213,-11.7986 122.1213,-5.7986 128.1213,.2014 134.1213,.2014 134.1213,.2014 206.1991,.2014 206.1991,.2014 212.1991,.2014 218.1991,-5.7986 218.1991,-11.7986 218.1991,-11.7986 218.1991,-46.6014 218.1991,-46.6014 218.1991,-52.6014 212.1991,-58.6014 206.1991,-58.6014"/>
<text text-anchor="middle" x="170.1602" y="-41.8" font-family="Helvetica,sans-Serif" font-size="14.00" fill="#000000">gini = 0.0</text>
<text text-anchor="middle" x="170.1602" y="-25" font-family="Helvetica,sans-Serif" font-size="14.00" fill="#000000">samples = 4</text>
<text text-anchor="middle" x="170.1602" y="-8.2" font-family="Helvetica,sans-Serif" font-size="14.00" fill="#000000">value = [0, 4]</text>
</g>
<!-- 9&#45;&gt;11 -->
<g id="edge11" class="edge">
<title>9&#45;&gt;11</title>
<path fill="none" stroke="#000000" d="M132.7946,-94.3048C137.8228,-85.5437 143.18,-76.2096 148.2212,-67.4259"/>
<polygon fill="#000000" stroke="#000000" points="151.3912,-68.9339 153.3334,-58.5186 145.32,-65.4495 151.3912,-68.9339"/>
</g>
<!-- 14 -->
<g id="node15" class="node">
<title>14</title>
<path fill="#e58139" stroke="#000000" d="M450.0459,-161.4014C450.0459,-161.4014 354.2745,-161.4014 354.2745,-161.4014 348.2745,-161.4014 342.2745,-155.4014 342.2745,-149.4014 342.2745,-149.4014 342.2745,-114.5986 342.2745,-114.5986 342.2745,-108.5986 348.2745,-102.5986 354.2745,-102.5986 354.2745,-102.5986 450.0459,-102.5986 450.0459,-102.5986 456.0459,-102.5986 462.0459,-108.5986 462.0459,-114.5986 462.0459,-114.5986 462.0459,-149.4014 462.0459,-149.4014 462.0459,-155.4014 456.0459,-161.4014 450.0459,-161.4014"/>
<text text-anchor="middle" x="402.1602" y="-144.6" font-family="Helvetica,sans-Serif" font-size="14.00" fill="#000000">gini = 0.0</text>
<text text-anchor="middle" x="402.1602" y="-127.8" font-family="Helvetica,sans-Serif" font-size="14.00" fill="#000000">samples = 2624</text>
<text text-anchor="middle" x="402.1602" y="-111" font-family="Helvetica,sans-Serif" font-size="14.00" fill="#000000">value = [2624, 0]</text>
</g>
<!-- 13&#45;&gt;14 -->
<g id="edge14" class="edge">
<title>13&#45;&gt;14</title>
<path fill="none" stroke="#000000" d="M406.7903,-205.5528C406.105,-194.6662 405.355,-182.751 404.6619,-171.7411"/>
<polygon fill="#000000" stroke="#000000" points="408.1403,-171.2862 404.0188,-161.5258 401.1541,-171.726 408.1403,-171.2862"/>
</g>
<!-- 15 -->
<g id="node16" class="node">
<title>15</title>
<path fill="#399de5" stroke="#000000" d="M580.2632,-161.4014C580.2632,-161.4014 492.0572,-161.4014 492.0572,-161.4014 486.0572,-161.4014 480.0572,-155.4014 480.0572,-149.4014 480.0572,-149.4014 480.0572,-114.5986 480.0572,-114.5986 480.0572,-108.5986 486.0572,-102.5986 492.0572,-102.5986 492.0572,-102.5986 580.2632,-102.5986 580.2632,-102.5986 586.2632,-102.5986 592.2632,-108.5986 592.2632,-114.5986 592.2632,-114.5986 592.2632,-149.4014 592.2632,-149.4014 592.2632,-155.4014 586.2632,-161.4014 580.2632,-161.4014"/>
<text text-anchor="middle" x="536.1602" y="-144.6" font-family="Helvetica,sans-Serif" font-size="14.00" fill="#000000">gini = 0.0</text>
<text text-anchor="middle" x="536.1602" y="-127.8" font-family="Helvetica,sans-Serif" font-size="14.00" fill="#000000">samples = 688</text>
<text text-anchor="middle" x="536.1602" y="-111" font-family="Helvetica,sans-Serif" font-size="14.00" fill="#000000">value = [0, 688]</text>
</g>
<!-- 13&#45;&gt;15 -->
<g id="edge15" class="edge">
<title>13&#45;&gt;15</title>
<path fill="none" stroke="#000000" d="M452.1566,-205.5528C465.8718,-193.5439 481.0165,-180.2833 494.6259,-168.367"/>
<polygon fill="#000000" stroke="#000000" points="497.2212,-170.7467 502.4391,-161.5258 492.6099,-165.4802 497.2212,-170.7467"/>
</g>
<!-- 17 -->
<g id="node18" class="node">
<title>17</title>
<path fill="#e58139" stroke="#000000" d="M609.4811,-272.6014C609.4811,-272.6014 528.8393,-272.6014 528.8393,-272.6014 522.8393,-272.6014 516.8393,-266.6014 516.8393,-260.6014 516.8393,-260.6014 516.8393,-225.7986 516.8393,-225.7986 516.8393,-219.7986 522.8393,-213.7986 528.8393,-213.7986 528.8393,-213.7986 609.4811,-213.7986 609.4811,-213.7986 615.4811,-213.7986 621.4811,-219.7986 621.4811,-225.7986 621.4811,-225.7986 621.4811,-260.6014 621.4811,-260.6014 621.4811,-266.6014 615.4811,-272.6014 609.4811,-272.6014"/>
<text text-anchor="middle" x="569.1602" y="-255.8" font-family="Helvetica,sans-Serif" font-size="14.00" fill="#000000">gini = 0.0</text>
<text text-anchor="middle" x="569.1602" y="-239" font-family="Helvetica,sans-Serif" font-size="14.00" fill="#000000">samples = 58</text>
<text text-anchor="middle" x="569.1602" y="-222.2" font-family="Helvetica,sans-Serif" font-size="14.00" fill="#000000">value = [58, 0]</text>
</g>
<!-- 16&#45;&gt;17 -->
<g id="edge17" class="edge">
<title>16&#45;&gt;17</title>
<path fill="none" stroke="#000000" d="M569.1602,-316.7528C569.1602,-305.8662 569.1602,-293.951 569.1602,-282.9411"/>
<polygon fill="#000000" stroke="#000000" points="572.6603,-282.7258 569.1602,-272.7258 565.6603,-282.7259 572.6603,-282.7258"/>
</g>
<!-- 18 -->
<g id="node19" class="node">
<title>18</title>
<path fill="#41a1e6" stroke="#000000" d="M807.0659,-280.9003C807.0659,-280.9003 651.2545,-280.9003 651.2545,-280.9003 645.2545,-280.9003 639.2545,-274.9003 639.2545,-268.9003 639.2545,-268.9003 639.2545,-217.4997 639.2545,-217.4997 639.2545,-211.4997 645.2545,-205.4997 651.2545,-205.4997 651.2545,-205.4997 807.0659,-205.4997 807.0659,-205.4997 813.0659,-205.4997 819.0659,-211.4997 819.0659,-217.4997 819.0659,-217.4997 819.0659,-268.9003 819.0659,-268.9003 819.0659,-274.9003 813.0659,-280.9003 807.0659,-280.9003"/>
<text text-anchor="middle" x="729.1602" y="-264.2" font-family="Helvetica,sans-Serif" font-size="14.00" fill="#000000">Pressure[hPa] &lt;= 938.365</text>
<text text-anchor="middle" x="729.1602" y="-247.4" font-family="Helvetica,sans-Serif" font-size="14.00" fill="#000000">gini = 0.078</text>
<text text-anchor="middle" x="729.1602" y="-230.6" font-family="Helvetica,sans-Serif" font-size="14.00" fill="#000000">samples = 392</text>
<text text-anchor="middle" x="729.1602" y="-213.8" font-family="Helvetica,sans-Serif" font-size="14.00" fill="#000000">value = [16, 376]</text>
</g>
<!-- 16&#45;&gt;18 -->
<g id="edge18" class="edge">
<title>16&#45;&gt;18</title>
<path fill="none" stroke="#000000" d="M623.3289,-316.7528C637.2733,-307.0614 652.3907,-296.5548 666.7178,-286.5974"/>
<polygon fill="#000000" stroke="#000000" points="668.8332,-289.3896 675.0473,-280.8085 664.8382,-283.6415 668.8332,-289.3896"/>
</g>
<!-- 19 -->
<g id="node20" class="node">
<title>19</title>
<path fill="#e58139" stroke="#000000" d="M736.4811,-161.4014C736.4811,-161.4014 655.8393,-161.4014 655.8393,-161.4014 649.8393,-161.4014 643.8393,-155.4014 643.8393,-149.4014 643.8393,-149.4014 643.8393,-114.5986 643.8393,-114.5986 643.8393,-108.5986 649.8393,-102.5986 655.8393,-102.5986 655.8393,-102.5986 736.4811,-102.5986 736.4811,-102.5986 742.4811,-102.5986 748.4811,-108.5986 748.4811,-114.5986 748.4811,-114.5986 748.4811,-149.4014 748.4811,-149.4014 748.4811,-155.4014 742.4811,-161.4014 736.4811,-161.4014"/>
<text text-anchor="middle" x="696.1602" y="-144.6" font-family="Helvetica,sans-Serif" font-size="14.00" fill="#000000">gini = 0.0</text>
<text text-anchor="middle" x="696.1602" y="-127.8" font-family="Helvetica,sans-Serif" font-size="14.00" fill="#000000">samples = 16</text>
<text text-anchor="middle" x="696.1602" y="-111" font-family="Helvetica,sans-Serif" font-size="14.00" fill="#000000">value = [16, 0]</text>
</g>
<!-- 18&#45;&gt;19 -->
<g id="edge19" class="edge">
<title>18&#45;&gt;19</title>
<path fill="none" stroke="#000000" d="M717.9879,-205.5528C714.7239,-194.554 711.1482,-182.5052 707.8529,-171.4009"/>
<polygon fill="#000000" stroke="#000000" points="711.1228,-170.1168 704.9224,-161.5258 704.4121,-172.1084 711.1228,-170.1168"/>
</g>
<!-- 20 -->
<g id="node21" class="node">
<title>20</title>
<path fill="#399de5" stroke="#000000" d="M866.2632,-161.4014C866.2632,-161.4014 778.0572,-161.4014 778.0572,-161.4014 772.0572,-161.4014 766.0572,-155.4014 766.0572,-149.4014 766.0572,-149.4014 766.0572,-114.5986 766.0572,-114.5986 766.0572,-108.5986 772.0572,-102.5986 778.0572,-102.5986 778.0572,-102.5986 866.2632,-102.5986 866.2632,-102.5986 872.2632,-102.5986 878.2632,-108.5986 878.2632,-114.5986 878.2632,-114.5986 878.2632,-149.4014 878.2632,-149.4014 878.2632,-155.4014 872.2632,-161.4014 866.2632,-161.4014"/>
<text text-anchor="middle" x="822.1602" y="-144.6" font-family="Helvetica,sans-Serif" font-size="14.00" fill="#000000">gini = 0.0</text>
<text text-anchor="middle" x="822.1602" y="-127.8" font-family="Helvetica,sans-Serif" font-size="14.00" fill="#000000">samples = 376</text>
<text text-anchor="middle" x="822.1602" y="-111" font-family="Helvetica,sans-Serif" font-size="14.00" fill="#000000">value = [0, 376]</text>
</g>
<!-- 18&#45;&gt;20 -->
<g id="edge20" class="edge">
<title>18&#45;&gt;20</title>
<path fill="none" stroke="#000000" d="M760.6458,-205.5528C770.4076,-193.8806 781.1583,-181.0259 790.9045,-169.3724"/>
<polygon fill="#000000" stroke="#000000" points="793.7362,-171.4422 797.4668,-161.5258 788.3666,-166.9513 793.7362,-171.4422"/>
</g>
<!-- 22 -->
<g id="node23" class="node">
<title>22</title>
<path fill="#e88e4d" stroke="#000000" d="M1121.1118,-503.3003C1121.1118,-503.3003 1009.2086,-503.3003 1009.2086,-503.3003 1003.2086,-503.3003 997.2086,-497.3003 997.2086,-491.3003 997.2086,-491.3003 997.2086,-439.8997 997.2086,-439.8997 997.2086,-433.8997 1003.2086,-427.8997 1009.2086,-427.8997 1009.2086,-427.8997 1121.1118,-427.8997 1121.1118,-427.8997 1127.1118,-427.8997 1133.1118,-433.8997 1133.1118,-439.8997 1133.1118,-439.8997 1133.1118,-491.3003 1133.1118,-491.3003 1133.1118,-497.3003 1127.1118,-503.3003 1121.1118,-503.3003"/>
<text text-anchor="middle" x="1065.1602" y="-486.6" font-family="Helvetica,sans-Serif" font-size="14.00" fill="#000000">CNT &lt;= 1657.5</text>
<text text-anchor="middle" x="1065.1602" y="-469.8" font-family="Helvetica,sans-Serif" font-size="14.00" fill="#000000">gini = 0.169</text>
<text text-anchor="middle" x="1065.1602" y="-453" font-family="Helvetica,sans-Serif" font-size="14.00" fill="#000000">samples = 2713</text>
<text text-anchor="middle" x="1065.1602" y="-436.2" font-family="Helvetica,sans-Serif" font-size="14.00" fill="#000000">value = [2460, 253]</text>
</g>
<!-- 21&#45;&gt;22 -->
<g id="edge22" class="edge">
<title>21&#45;&gt;22</title>
<path fill="none" stroke="#000000" d="M1065.1602,-539.1528C1065.1602,-530.82 1065.1602,-521.8845 1065.1602,-513.2137"/>
<polygon fill="#000000" stroke="#000000" points="1068.6603,-513.2084 1065.1602,-503.2085 1061.6603,-513.2085 1068.6603,-513.2084"/>
</g>
<!-- 31 -->
<g id="node32" class="node">
<title>31</title>
<path fill="#41a1e6" stroke="#000000" d="M1369.1118,-503.3003C1369.1118,-503.3003 1257.2086,-503.3003 1257.2086,-503.3003 1251.2086,-503.3003 1245.2086,-497.3003 1245.2086,-491.3003 1245.2086,-491.3003 1245.2086,-439.8997 1245.2086,-439.8997 1245.2086,-433.8997 1251.2086,-427.8997 1257.2086,-427.8997 1257.2086,-427.8997 1369.1118,-427.8997 1369.1118,-427.8997 1375.1118,-427.8997 1381.1118,-433.8997 1381.1118,-439.8997 1381.1118,-439.8997 1381.1118,-491.3003 1381.1118,-491.3003 1381.1118,-497.3003 1375.1118,-503.3003 1369.1118,-503.3003"/>
<text text-anchor="middle" x="1313.1602" y="-486.6" font-family="Helvetica,sans-Serif" font-size="14.00" fill="#000000">NC1.0 &lt;= 1.503</text>
<text text-anchor="middle" x="1313.1602" y="-469.8" font-family="Helvetica,sans-Serif" font-size="14.00" fill="#000000">gini = 0.073</text>
<text text-anchor="middle" x="1313.1602" y="-453" font-family="Helvetica,sans-Serif" font-size="14.00" fill="#000000">samples = 4102</text>
<text text-anchor="middle" x="1313.1602" y="-436.2" font-family="Helvetica,sans-Serif" font-size="14.00" fill="#000000">value = [156, 3946]</text>
</g>
<!-- 21&#45;&gt;31 -->
<g id="edge31" class="edge">
<title>21&#45;&gt;31</title>
<path fill="none" stroke="#000000" d="M1149.1217,-539.1528C1177.2753,-526.529 1208.5136,-512.5222 1236.1114,-500.1477"/>
<polygon fill="#000000" stroke="#000000" points="1237.6287,-503.3032 1245.3214,-496.018 1234.7647,-496.9159 1237.6287,-503.3032"/>
</g>
<!-- 23 -->
<g id="node24" class="node">
<title>23</title>
<path fill="#4ba6e7" stroke="#000000" d="M1029.0459,-392.1003C1029.0459,-392.1003 933.2745,-392.1003 933.2745,-392.1003 927.2745,-392.1003 921.2745,-386.1003 921.2745,-380.1003 921.2745,-380.1003 921.2745,-328.6997 921.2745,-328.6997 921.2745,-322.6997 927.2745,-316.6997 933.2745,-316.6997 933.2745,-316.6997 1029.0459,-316.6997 1029.0459,-316.6997 1035.0459,-316.6997 1041.0459,-322.6997 1041.0459,-328.6997 1041.0459,-328.6997 1041.0459,-380.1003 1041.0459,-380.1003 1041.0459,-386.1003 1035.0459,-392.1003 1029.0459,-392.1003"/>
<text text-anchor="middle" x="981.1602" y="-375.4" font-family="Helvetica,sans-Serif" font-size="14.00" fill="#000000">CNT &lt;= 32.5</text>
<text text-anchor="middle" x="981.1602" y="-358.6" font-family="Helvetica,sans-Serif" font-size="14.00" fill="#000000">gini = 0.154</text>
<text text-anchor="middle" x="981.1602" y="-341.8" font-family="Helvetica,sans-Serif" font-size="14.00" fill="#000000">samples = 143</text>
<text text-anchor="middle" x="981.1602" y="-325" font-family="Helvetica,sans-Serif" font-size="14.00" fill="#000000">value = [12, 131]</text>
</g>
<!-- 22&#45;&gt;23 -->
<g id="edge23" class="edge">
<title>22&#45;&gt;23</title>
<path fill="none" stroke="#000000" d="M1036.7216,-427.9528C1029.9482,-418.986 1022.6475,-409.3213 1015.6361,-400.0395"/>
<polygon fill="#000000" stroke="#000000" points="1018.3898,-397.8781 1009.5695,-392.0085 1012.8043,-402.0974 1018.3898,-397.8781"/>
</g>
<!-- 26 -->
<g id="node27" class="node">
<title>26</title>
<path fill="#e68743" stroke="#000000" d="M1227.0659,-392.1003C1227.0659,-392.1003 1071.2545,-392.1003 1071.2545,-392.1003 1065.2545,-392.1003 1059.2545,-386.1003 1059.2545,-380.1003 1059.2545,-380.1003 1059.2545,-328.6997 1059.2545,-328.6997 1059.2545,-322.6997 1065.2545,-316.6997 1071.2545,-316.6997 1071.2545,-316.6997 1227.0659,-316.6997 1227.0659,-316.6997 1233.0659,-316.6997 1239.0659,-322.6997 1239.0659,-328.6997 1239.0659,-328.6997 1239.0659,-380.1003 1239.0659,-380.1003 1239.0659,-386.1003 1233.0659,-392.1003 1227.0659,-392.1003"/>
<text text-anchor="middle" x="1149.1602" y="-375.4" font-family="Helvetica,sans-Serif" font-size="14.00" fill="#000000">Pressure[hPa] &lt;= 938.179</text>
<text text-anchor="middle" x="1149.1602" y="-358.6" font-family="Helvetica,sans-Serif" font-size="14.00" fill="#000000">gini = 0.09</text>
<text text-anchor="middle" x="1149.1602" y="-341.8" font-family="Helvetica,sans-Serif" font-size="14.00" fill="#000000">samples = 2570</text>
<text text-anchor="middle" x="1149.1602" y="-325" font-family="Helvetica,sans-Serif" font-size="14.00" fill="#000000">value = [2448, 122]</text>
</g>
<!-- 22&#45;&gt;26 -->
<g id="edge26" class="edge">
<title>22&#45;&gt;26</title>
<path fill="none" stroke="#000000" d="M1093.5988,-427.9528C1100.3722,-418.986 1107.6729,-409.3213 1114.6843,-400.0395"/>
<polygon fill="#000000" stroke="#000000" points="1117.5161,-402.0974 1120.7509,-392.0085 1111.9306,-397.8781 1117.5161,-402.0974"/>
</g>
<!-- 24 -->
<g id="node25" class="node">
<title>24</title>
<path fill="#e58139" stroke="#000000" d="M929.4811,-272.6014C929.4811,-272.6014 848.8393,-272.6014 848.8393,-272.6014 842.8393,-272.6014 836.8393,-266.6014 836.8393,-260.6014 836.8393,-260.6014 836.8393,-225.7986 836.8393,-225.7986 836.8393,-219.7986 842.8393,-213.7986 848.8393,-213.7986 848.8393,-213.7986 929.4811,-213.7986 929.4811,-213.7986 935.4811,-213.7986 941.4811,-219.7986 941.4811,-225.7986 941.4811,-225.7986 941.4811,-260.6014 941.4811,-260.6014 941.4811,-266.6014 935.4811,-272.6014 929.4811,-272.6014"/>
<text text-anchor="middle" x="889.1602" y="-255.8" font-family="Helvetica,sans-Serif" font-size="14.00" fill="#000000">gini = 0.0</text>
<text text-anchor="middle" x="889.1602" y="-239" font-family="Helvetica,sans-Serif" font-size="14.00" fill="#000000">samples = 12</text>
<text text-anchor="middle" x="889.1602" y="-222.2" font-family="Helvetica,sans-Serif" font-size="14.00" fill="#000000">value = [12, 0]</text>
</g>
<!-- 23&#45;&gt;24 -->
<g id="edge24" class="edge">
<title>23&#45;&gt;24</title>
<path fill="none" stroke="#000000" d="M950.0132,-316.7528C940.3563,-305.0806 929.7212,-292.2259 920.0798,-280.5724"/>
<polygon fill="#000000" stroke="#000000" points="922.6593,-278.1996 913.588,-272.7258 917.2659,-282.6618 922.6593,-278.1996"/>
</g>
<!-- 25 -->
<g id="node26" class="node">
<title>25</title>
<path fill="#399de5" stroke="#000000" d="M1059.2632,-272.6014C1059.2632,-272.6014 971.0572,-272.6014 971.0572,-272.6014 965.0572,-272.6014 959.0572,-266.6014 959.0572,-260.6014 959.0572,-260.6014 959.0572,-225.7986 959.0572,-225.7986 959.0572,-219.7986 965.0572,-213.7986 971.0572,-213.7986 971.0572,-213.7986 1059.2632,-213.7986 1059.2632,-213.7986 1065.2632,-213.7986 1071.2632,-219.7986 1071.2632,-225.7986 1071.2632,-225.7986 1071.2632,-260.6014 1071.2632,-260.6014 1071.2632,-266.6014 1065.2632,-272.6014 1059.2632,-272.6014"/>
<text text-anchor="middle" x="1015.1602" y="-255.8" font-family="Helvetica,sans-Serif" font-size="14.00" fill="#000000">gini = 0.0</text>
<text text-anchor="middle" x="1015.1602" y="-239" font-family="Helvetica,sans-Serif" font-size="14.00" fill="#000000">samples = 131</text>
<text text-anchor="middle" x="1015.1602" y="-222.2" font-family="Helvetica,sans-Serif" font-size="14.00" fill="#000000">value = [0, 131]</text>
</g>
<!-- 23&#45;&gt;25 -->
<g id="edge25" class="edge">
<title>23&#45;&gt;25</title>
<path fill="none" stroke="#000000" d="M992.671,-316.7528C996.034,-305.754 999.718,-293.7052 1003.1132,-282.6009"/>
<polygon fill="#000000" stroke="#000000" points="1006.5556,-283.3122 1006.1325,-272.7258 999.8615,-281.2654 1006.5556,-283.3122"/>
</g>
<!-- 27 -->
<g id="node28" class="node">
<title>27</title>
<path fill="#e58139" stroke="#000000" d="M1197.0459,-272.6014C1197.0459,-272.6014 1101.2745,-272.6014 1101.2745,-272.6014 1095.2745,-272.6014 1089.2745,-266.6014 1089.2745,-260.6014 1089.2745,-260.6014 1089.2745,-225.7986 1089.2745,-225.7986 1089.2745,-219.7986 1095.2745,-213.7986 1101.2745,-213.7986 1101.2745,-213.7986 1197.0459,-213.7986 1197.0459,-213.7986 1203.0459,-213.7986 1209.0459,-219.7986 1209.0459,-225.7986 1209.0459,-225.7986 1209.0459,-260.6014 1209.0459,-260.6014 1209.0459,-266.6014 1203.0459,-272.6014 1197.0459,-272.6014"/>
<text text-anchor="middle" x="1149.1602" y="-255.8" font-family="Helvetica,sans-Serif" font-size="14.00" fill="#000000">gini = 0.0</text>
<text text-anchor="middle" x="1149.1602" y="-239" font-family="Helvetica,sans-Serif" font-size="14.00" fill="#000000">samples = 2182</text>
<text text-anchor="middle" x="1149.1602" y="-222.2" font-family="Helvetica,sans-Serif" font-size="14.00" fill="#000000">value = [2182, 0]</text>
</g>
<!-- 26&#45;&gt;27 -->
<g id="edge27" class="edge">
<title>26&#45;&gt;27</title>
<path fill="none" stroke="#000000" d="M1149.1602,-316.7528C1149.1602,-305.8662 1149.1602,-293.951 1149.1602,-282.9411"/>
<polygon fill="#000000" stroke="#000000" points="1152.6603,-282.7258 1149.1602,-272.7258 1145.6603,-282.7259 1152.6603,-282.7258"/>
</g>
<!-- 28 -->
<g id="node29" class="node">
<title>28</title>
<path fill="#f1bb94" stroke="#000000" d="M1342.8288,-280.9003C1342.8288,-280.9003 1239.4916,-280.9003 1239.4916,-280.9003 1233.4916,-280.9003 1227.4916,-274.9003 1227.4916,-268.9003 1227.4916,-268.9003 1227.4916,-217.4997 1227.4916,-217.4997 1227.4916,-211.4997 1233.4916,-205.4997 1239.4916,-205.4997 1239.4916,-205.4997 1342.8288,-205.4997 1342.8288,-205.4997 1348.8288,-205.4997 1354.8288,-211.4997 1354.8288,-217.4997 1354.8288,-217.4997 1354.8288,-268.9003 1354.8288,-268.9003 1354.8288,-274.9003 1348.8288,-280.9003 1342.8288,-280.9003"/>
<text text-anchor="middle" x="1291.1602" y="-264.2" font-family="Helvetica,sans-Serif" font-size="14.00" fill="#000000">CNT &lt;= 3177.5</text>
<text text-anchor="middle" x="1291.1602" y="-247.4" font-family="Helvetica,sans-Serif" font-size="14.00" fill="#000000">gini = 0.431</text>
<text text-anchor="middle" x="1291.1602" y="-230.6" font-family="Helvetica,sans-Serif" font-size="14.00" fill="#000000">samples = 388</text>
<text text-anchor="middle" x="1291.1602" y="-213.8" font-family="Helvetica,sans-Serif" font-size="14.00" fill="#000000">value = [266, 122]</text>
</g>
<!-- 26&#45;&gt;28 -->
<g id="edge28" class="edge">
<title>26&#45;&gt;28</title>
<path fill="none" stroke="#000000" d="M1197.2349,-316.7528C1209.3793,-307.2425 1222.5261,-296.9473 1235.0289,-287.1564"/>
<polygon fill="#000000" stroke="#000000" points="1237.4197,-289.7296 1243.135,-280.8085 1233.1039,-284.2184 1237.4197,-289.7296"/>
</g>
<!-- 29 -->
<g id="node30" class="node">
<title>29</title>
<path fill="#e58139" stroke="#000000" d="M1270.2632,-161.4014C1270.2632,-161.4014 1182.0572,-161.4014 1182.0572,-161.4014 1176.0572,-161.4014 1170.0572,-155.4014 1170.0572,-149.4014 1170.0572,-149.4014 1170.0572,-114.5986 1170.0572,-114.5986 1170.0572,-108.5986 1176.0572,-102.5986 1182.0572,-102.5986 1182.0572,-102.5986 1270.2632,-102.5986 1270.2632,-102.5986 1276.2632,-102.5986 1282.2632,-108.5986 1282.2632,-114.5986 1282.2632,-114.5986 1282.2632,-149.4014 1282.2632,-149.4014 1282.2632,-155.4014 1276.2632,-161.4014 1270.2632,-161.4014"/>
<text text-anchor="middle" x="1226.1602" y="-144.6" font-family="Helvetica,sans-Serif" font-size="14.00" fill="#000000">gini = 0.0</text>
<text text-anchor="middle" x="1226.1602" y="-127.8" font-family="Helvetica,sans-Serif" font-size="14.00" fill="#000000">samples = 266</text>
<text text-anchor="middle" x="1226.1602" y="-111" font-family="Helvetica,sans-Serif" font-size="14.00" fill="#000000">value = [266, 0]</text>
</g>
<!-- 28&#45;&gt;29 -->
<g id="edge29" class="edge">
<title>28&#45;&gt;29</title>
<path fill="none" stroke="#000000" d="M1269.1542,-205.5528C1262.5282,-194.2173 1255.2503,-181.7665 1248.5968,-170.3838"/>
<polygon fill="#000000" stroke="#000000" points="1251.4871,-168.3929 1243.419,-161.5258 1245.4438,-171.9254 1251.4871,-168.3929"/>
</g>
<!-- 30 -->
<g id="node31" class="node">
<title>30</title>
<path fill="#399de5" stroke="#000000" d="M1400.2632,-161.4014C1400.2632,-161.4014 1312.0572,-161.4014 1312.0572,-161.4014 1306.0572,-161.4014 1300.0572,-155.4014 1300.0572,-149.4014 1300.0572,-149.4014 1300.0572,-114.5986 1300.0572,-114.5986 1300.0572,-108.5986 1306.0572,-102.5986 1312.0572,-102.5986 1312.0572,-102.5986 1400.2632,-102.5986 1400.2632,-102.5986 1406.2632,-102.5986 1412.2632,-108.5986 1412.2632,-114.5986 1412.2632,-114.5986 1412.2632,-149.4014 1412.2632,-149.4014 1412.2632,-155.4014 1406.2632,-161.4014 1400.2632,-161.4014"/>
<text text-anchor="middle" x="1356.1602" y="-144.6" font-family="Helvetica,sans-Serif" font-size="14.00" fill="#000000">gini = 0.0</text>
<text text-anchor="middle" x="1356.1602" y="-127.8" font-family="Helvetica,sans-Serif" font-size="14.00" fill="#000000">samples = 122</text>
<text text-anchor="middle" x="1356.1602" y="-111" font-family="Helvetica,sans-Serif" font-size="14.00" fill="#000000">value = [0, 122]</text>
</g>
<!-- 28&#45;&gt;30 -->
<g id="edge30" class="edge">
<title>28&#45;&gt;30</title>
<path fill="none" stroke="#000000" d="M1313.1662,-205.5528C1319.7922,-194.2173 1327.0701,-181.7665 1333.7236,-170.3838"/>
<polygon fill="#000000" stroke="#000000" points="1336.8766,-171.9254 1338.9014,-161.5258 1330.8333,-168.3929 1336.8766,-171.9254"/>
</g>
<!-- 32 -->
<g id="node33" class="node">
<title>32</title>
<path fill="#e58139" stroke="#000000" d="M1357.2632,-383.8014C1357.2632,-383.8014 1269.0572,-383.8014 1269.0572,-383.8014 1263.0572,-383.8014 1257.0572,-377.8014 1257.0572,-371.8014 1257.0572,-371.8014 1257.0572,-336.9986 1257.0572,-336.9986 1257.0572,-330.9986 1263.0572,-324.9986 1269.0572,-324.9986 1269.0572,-324.9986 1357.2632,-324.9986 1357.2632,-324.9986 1363.2632,-324.9986 1369.2632,-330.9986 1369.2632,-336.9986 1369.2632,-336.9986 1369.2632,-371.8014 1369.2632,-371.8014 1369.2632,-377.8014 1363.2632,-383.8014 1357.2632,-383.8014"/>
<text text-anchor="middle" x="1313.1602" y="-367" font-family="Helvetica,sans-Serif" font-size="14.00" fill="#000000">gini = 0.0</text>
<text text-anchor="middle" x="1313.1602" y="-350.2" font-family="Helvetica,sans-Serif" font-size="14.00" fill="#000000">samples = 156</text>
<text text-anchor="middle" x="1313.1602" y="-333.4" font-family="Helvetica,sans-Serif" font-size="14.00" fill="#000000">value = [156, 0]</text>
</g>
<!-- 31&#45;&gt;32 -->
<g id="edge32" class="edge">
<title>31&#45;&gt;32</title>
<path fill="none" stroke="#000000" d="M1313.1602,-427.9528C1313.1602,-417.0662 1313.1602,-405.151 1313.1602,-394.1411"/>
<polygon fill="#000000" stroke="#000000" points="1316.6603,-393.9258 1313.1602,-383.9258 1309.6603,-393.9259 1316.6603,-393.9258"/>
</g>
<!-- 33 -->
<g id="node34" class="node">
<title>33</title>
<path fill="#399de5" stroke="#000000" d="M1495.0459,-383.8014C1495.0459,-383.8014 1399.2745,-383.8014 1399.2745,-383.8014 1393.2745,-383.8014 1387.2745,-377.8014 1387.2745,-371.8014 1387.2745,-371.8014 1387.2745,-336.9986 1387.2745,-336.9986 1387.2745,-330.9986 1393.2745,-324.9986 1399.2745,-324.9986 1399.2745,-324.9986 1495.0459,-324.9986 1495.0459,-324.9986 1501.0459,-324.9986 1507.0459,-330.9986 1507.0459,-336.9986 1507.0459,-336.9986 1507.0459,-371.8014 1507.0459,-371.8014 1507.0459,-377.8014 1501.0459,-383.8014 1495.0459,-383.8014"/>
<text text-anchor="middle" x="1447.1602" y="-367" font-family="Helvetica,sans-Serif" font-size="14.00" fill="#000000">gini = 0.0</text>
<text text-anchor="middle" x="1447.1602" y="-350.2" font-family="Helvetica,sans-Serif" font-size="14.00" fill="#000000">samples = 3946</text>
<text text-anchor="middle" x="1447.1602" y="-333.4" font-family="Helvetica,sans-Serif" font-size="14.00" fill="#000000">value = [0, 3946]</text>
</g>
<!-- 31&#45;&gt;33 -->
<g id="edge33" class="edge">
<title>31&#45;&gt;33</title>
<path fill="none" stroke="#000000" d="M1358.5265,-427.9528C1373.1329,-415.8316 1389.2759,-402.4353 1403.7388,-390.4332"/>
<polygon fill="#000000" stroke="#000000" points="1406.1202,-393.0053 1411.5805,-383.9258 1401.65,-387.6185 1406.1202,-393.0053"/>
</g>
</g>
</svg>
