<?xml version="1.0" encoding="UTF-8" standalone="no"?>
<!DOCTYPE svg PUBLIC "-//W3C//DTD SVG 1.1//EN"
 "http://www.w3.org/Graphics/SVG/1.1/DTD/svg11.dtd">
<!-- Generated by graphviz version 2.40.1 (20161225.0304)
 -->
<!-- Title: Tree Pages: 1 -->
<svg width="1161pt" height="1067pt"
 viewBox="0.00 0.00 1160.78 1067.20" xmlns="http://www.w3.org/2000/svg" xmlns:xlink="http://www.w3.org/1999/xlink">
<g id="graph0" class="graph" transform="scale(1 1) rotate(0) translate(4 1063.2)">
<title>Tree</title>
<polygon fill="#ffffff" stroke="transparent" points="-4,4 -4,-1063.2 1156.7769,-1063.2 1156.7769,4 -4,4"/>
<!-- 0 -->
<g id="node1" class="node">
<title>0</title>
<path fill="#88c4ef" stroke="#000000" d="M660.1328,-1059.3003C660.1328,-1059.3003 525.5354,-1059.3003 525.5354,-1059.3003 519.5354,-1059.3003 513.5354,-1053.3003 513.5354,-1047.3003 513.5354,-1047.3003 513.5354,-995.8997 513.5354,-995.8997 513.5354,-989.8997 519.5354,-983.8997 525.5354,-983.8997 525.5354,-983.8997 660.1328,-983.8997 660.1328,-983.8997 666.1328,-983.8997 672.1328,-989.8997 672.1328,-995.8997 672.1328,-995.8997 672.1328,-1047.3003 672.1328,-1047.3003 672.1328,-1053.3003 666.1328,-1059.3003 660.1328,-1059.3003"/>
<text text-anchor="middle" x="592.8341" y="-1042.6" font-family="Helvetica,sans-Serif" font-size="14.00" fill="#000000">CNT &lt;= 5743.5</text>
<text text-anchor="middle" x="592.8341" y="-1025.8" font-family="Helvetica,sans-Serif" font-size="14.00" fill="#000000">gini = 0.408</text>
<text text-anchor="middle" x="592.8341" y="-1009" font-family="Helvetica,sans-Serif" font-size="14.00" fill="#000000">samples = 62630</text>
<text text-anchor="middle" x="592.8341" y="-992.2" font-family="Helvetica,sans-Serif" font-size="14.00" fill="#000000">value = [17873, 44757]</text>
</g>
<!-- 1 -->
<g id="node2" class="node">
<title>1</title>
<path fill="#eead7e" stroke="#000000" d="M578.3501,-948.1003C578.3501,-948.1003 451.3181,-948.1003 451.3181,-948.1003 445.3181,-948.1003 439.3181,-942.1003 439.3181,-936.1003 439.3181,-936.1003 439.3181,-884.6997 439.3181,-884.6997 439.3181,-878.6997 445.3181,-872.6997 451.3181,-872.6997 451.3181,-872.6997 578.3501,-872.6997 578.3501,-872.6997 584.3501,-872.6997 590.3501,-878.6997 590.3501,-884.6997 590.3501,-884.6997 590.3501,-936.1003 590.3501,-936.1003 590.3501,-942.1003 584.3501,-948.1003 578.3501,-948.1003"/>
<text text-anchor="middle" x="514.8341" y="-931.4" font-family="Helvetica,sans-Serif" font-size="14.00" fill="#000000">UTC &lt;= 51146.5</text>
<text text-anchor="middle" x="514.8341" y="-914.6" font-family="Helvetica,sans-Serif" font-size="14.00" fill="#000000">gini = 0.384</text>
<text text-anchor="middle" x="514.8341" y="-897.8" font-family="Helvetica,sans-Serif" font-size="14.00" fill="#000000">samples = 24130</text>
<text text-anchor="middle" x="514.8341" y="-881" font-family="Helvetica,sans-Serif" font-size="14.00" fill="#000000">value = [17873, 6257]</text>
</g>
<!-- 0&#45;&gt;1 -->
<g id="edge1" class="edge">
<title>0&#45;&gt;1</title>
<path fill="none" stroke="#000000" d="M566.4269,-983.9528C560.2007,-975.0765 553.4949,-965.5165 547.0448,-956.3209"/>
<polygon fill="#000000" stroke="#000000" points="549.8221,-954.1854 541.2141,-948.0085 544.0913,-958.2052 549.8221,-954.1854"/>
<text text-anchor="middle" x="536.8933" y="-968.4322" font-family="Helvetica,sans-Serif" font-size="14.00" fill="#000000">True</text>
</g>
<!-- 36 -->
<g id="node37" class="node">
<title>36</title>
<path fill="#399de5" stroke="#000000" d="M723.5027,-939.8014C723.5027,-939.8014 620.1655,-939.8014 620.1655,-939.8014 614.1655,-939.8014 608.1655,-933.8014 608.1655,-927.8014 608.1655,-927.8014 608.1655,-892.9986 608.1655,-892.9986 608.1655,-886.9986 614.1655,-880.9986 620.1655,-880.9986 620.1655,-880.9986 723.5027,-880.9986 723.5027,-880.9986 729.5027,-880.9986 735.5027,-886.9986 735.5027,-892.9986 735.5027,-892.9986 735.5027,-927.8014 735.5027,-927.8014 735.5027,-933.8014 729.5027,-939.8014 723.5027,-939.8014"/>
<text text-anchor="middle" x="671.8341" y="-923" font-family="Helvetica,sans-Serif" font-size="14.00" fill="#000000">gini = 0.0</text>
<text text-anchor="middle" x="671.8341" y="-906.2" font-family="Helvetica,sans-Serif" font-size="14.00" fill="#000000">samples = 38500</text>
<text text-anchor="middle" x="671.8341" y="-889.4" font-family="Helvetica,sans-Serif" font-size="14.00" fill="#000000">value = [0, 38500]</text>
</g>
<!-- 0&#45;&gt;36 -->
<g id="edge36" class="edge">
<title>0&#45;&gt;36</title>
<path fill="none" stroke="#000000" d="M619.5799,-983.9528C627.7925,-972.3928 636.829,-959.673 645.0445,-948.1089"/>
<polygon fill="#000000" stroke="#000000" points="647.9197,-950.1051 650.858,-939.9258 642.2131,-946.051 647.9197,-950.1051"/>
<text text-anchor="middle" x="655.031" y="-960.3751" font-family="Helvetica,sans-Serif" font-size="14.00" fill="#000000">False</text>
</g>
<!-- 2 -->
<g id="node3" class="node">
<title>2</title>
<path fill="#fefcfb" stroke="#000000" d="M474.5677,-836.9003C474.5677,-836.9003 355.1005,-836.9003 355.1005,-836.9003 349.1005,-836.9003 343.1005,-830.9003 343.1005,-824.9003 343.1005,-824.9003 343.1005,-773.4997 343.1005,-773.4997 343.1005,-767.4997 349.1005,-761.4997 355.1005,-761.4997 355.1005,-761.4997 474.5677,-761.4997 474.5677,-761.4997 480.5677,-761.4997 486.5677,-767.4997 486.5677,-773.4997 486.5677,-773.4997 486.5677,-824.9003 486.5677,-824.9003 486.5677,-830.9003 480.5677,-836.9003 474.5677,-836.9003"/>
<text text-anchor="middle" x="414.8341" y="-820.2" font-family="Helvetica,sans-Serif" font-size="14.00" fill="#000000">NC0.5 &lt;= 8.415</text>
<text text-anchor="middle" x="414.8341" y="-803.4" font-family="Helvetica,sans-Serif" font-size="14.00" fill="#000000">gini = 0.5</text>
<text text-anchor="middle" x="414.8341" y="-786.6" font-family="Helvetica,sans-Serif" font-size="14.00" fill="#000000">samples = 12647</text>
<text text-anchor="middle" x="414.8341" y="-769.8" font-family="Helvetica,sans-Serif" font-size="14.00" fill="#000000">value = [6392, 6255]</text>
</g>
<!-- 1&#45;&gt;2 -->
<g id="edge2" class="edge">
<title>1&#45;&gt;2</title>
<path fill="none" stroke="#000000" d="M480.9787,-872.7528C472.7521,-863.6048 463.8723,-853.7305 455.3714,-844.2774"/>
<polygon fill="#000000" stroke="#000000" points="457.9439,-841.9038 448.6547,-836.8085 452.7389,-846.5845 457.9439,-841.9038"/>
</g>
<!-- 31 -->
<g id="node32" class="node">
<title>31</title>
<path fill="#e58139" stroke="#000000" d="M643.5027,-836.9003C643.5027,-836.9003 540.1655,-836.9003 540.1655,-836.9003 534.1655,-836.9003 528.1655,-830.9003 528.1655,-824.9003 528.1655,-824.9003 528.1655,-773.4997 528.1655,-773.4997 528.1655,-767.4997 534.1655,-761.4997 540.1655,-761.4997 540.1655,-761.4997 643.5027,-761.4997 643.5027,-761.4997 649.5027,-761.4997 655.5027,-767.4997 655.5027,-773.4997 655.5027,-773.4997 655.5027,-824.9003 655.5027,-824.9003 655.5027,-830.9003 649.5027,-836.9003 643.5027,-836.9003"/>
<text text-anchor="middle" x="591.8341" y="-820.2" font-family="Helvetica,sans-Serif" font-size="14.00" fill="#000000">CNT &lt;= 4.5</text>
<text text-anchor="middle" x="591.8341" y="-803.4" font-family="Helvetica,sans-Serif" font-size="14.00" fill="#000000">gini = 0.0</text>
<text text-anchor="middle" x="591.8341" y="-786.6" font-family="Helvetica,sans-Serif" font-size="14.00" fill="#000000">samples = 11483</text>
<text text-anchor="middle" x="591.8341" y="-769.8" font-family="Helvetica,sans-Serif" font-size="14.00" fill="#000000">value = [11481, 2]</text>
</g>
<!-- 1&#45;&gt;31 -->
<g id="edge31" class="edge">
<title>1&#45;&gt;31</title>
<path fill="none" stroke="#000000" d="M540.9028,-872.7528C547.0491,-863.8765 553.6689,-854.3165 560.0364,-845.1209"/>
<polygon fill="#000000" stroke="#000000" points="562.9768,-847.0224 565.7923,-836.8085 557.2219,-843.0374 562.9768,-847.0224"/>
</g>
<!-- 3 -->
<g id="node4" class="node">
<title>3</title>
<path fill="#e78d4b" stroke="#000000" d="M292.7077,-725.7003C292.7077,-725.7003 110.9605,-725.7003 110.9605,-725.7003 104.9605,-725.7003 98.9605,-719.7003 98.9605,-713.7003 98.9605,-713.7003 98.9605,-662.2997 98.9605,-662.2997 98.9605,-656.2997 104.9605,-650.2997 110.9605,-650.2997 110.9605,-650.2997 292.7077,-650.2997 292.7077,-650.2997 298.7077,-650.2997 304.7077,-656.2997 304.7077,-662.2997 304.7077,-662.2997 304.7077,-713.7003 304.7077,-713.7003 304.7077,-719.7003 298.7077,-725.7003 292.7077,-725.7003"/>
<text text-anchor="middle" x="201.8341" y="-709" font-family="Helvetica,sans-Serif" font-size="14.00" fill="#000000">Unnamed: 0 &lt;= 1654764672.0</text>
<text text-anchor="middle" x="201.8341" y="-692.2" font-family="Helvetica,sans-Serif" font-size="14.00" fill="#000000">gini = 0.155</text>
<text text-anchor="middle" x="201.8341" y="-675.4" font-family="Helvetica,sans-Serif" font-size="14.00" fill="#000000">samples = 6864</text>
<text text-anchor="middle" x="201.8341" y="-658.6" font-family="Helvetica,sans-Serif" font-size="14.00" fill="#000000">value = [6282, 582]</text>
</g>
<!-- 2&#45;&gt;3 -->
<g id="edge3" class="edge">
<title>2&#45;&gt;3</title>
<path fill="none" stroke="#000000" d="M343.019,-761.7078C323.748,-751.6471 302.7762,-740.6984 283.0353,-730.3923"/>
<polygon fill="#000000" stroke="#000000" points="284.5467,-727.2332 274.0623,-725.7078 281.3071,-733.4385 284.5467,-727.2332"/>
</g>
<!-- 8 -->
<g id="node9" class="node">
<title>8</title>
<path fill="#3d9fe6" stroke="#000000" d="M470.7857,-725.7003C470.7857,-725.7003 358.8825,-725.7003 358.8825,-725.7003 352.8825,-725.7003 346.8825,-719.7003 346.8825,-713.7003 346.8825,-713.7003 346.8825,-662.2997 346.8825,-662.2997 346.8825,-656.2997 352.8825,-650.2997 358.8825,-650.2997 358.8825,-650.2997 470.7857,-650.2997 470.7857,-650.2997 476.7857,-650.2997 482.7857,-656.2997 482.7857,-662.2997 482.7857,-662.2997 482.7857,-713.7003 482.7857,-713.7003 482.7857,-719.7003 476.7857,-725.7003 470.7857,-725.7003"/>
<text text-anchor="middle" x="414.8341" y="-709" font-family="Helvetica,sans-Serif" font-size="14.00" fill="#000000">UTC &lt;= 3177.5</text>
<text text-anchor="middle" x="414.8341" y="-692.2" font-family="Helvetica,sans-Serif" font-size="14.00" fill="#000000">gini = 0.037</text>
<text text-anchor="middle" x="414.8341" y="-675.4" font-family="Helvetica,sans-Serif" font-size="14.00" fill="#000000">samples = 5783</text>
<text text-anchor="middle" x="414.8341" y="-658.6" font-family="Helvetica,sans-Serif" font-size="14.00" fill="#000000">value = [110, 5673]</text>
</g>
<!-- 2&#45;&gt;8 -->
<g id="edge8" class="edge">
<title>2&#45;&gt;8</title>
<path fill="none" stroke="#000000" d="M414.8341,-761.5528C414.8341,-753.22 414.8341,-744.2845 414.8341,-735.6137"/>
<polygon fill="#000000" stroke="#000000" points="418.3342,-735.6084 414.8341,-725.6085 411.3342,-735.6085 418.3342,-735.6084"/>
</g>
<!-- 4 -->
<g id="node5" class="node">
<title>4</title>
<path fill="#e5823a" stroke="#000000" d="M115.5027,-614.5003C115.5027,-614.5003 12.1655,-614.5003 12.1655,-614.5003 6.1655,-614.5003 .1655,-608.5003 .1655,-602.5003 .1655,-602.5003 .1655,-551.0997 .1655,-551.0997 .1655,-545.0997 6.1655,-539.0997 12.1655,-539.0997 12.1655,-539.0997 115.5027,-539.0997 115.5027,-539.0997 121.5027,-539.0997 127.5027,-545.0997 127.5027,-551.0997 127.5027,-551.0997 127.5027,-602.5003 127.5027,-602.5003 127.5027,-608.5003 121.5027,-614.5003 115.5027,-614.5003"/>
<text text-anchor="middle" x="63.8341" y="-597.8" font-family="Helvetica,sans-Serif" font-size="14.00" fill="#000000">CNT &lt;= 3315.0</text>
<text text-anchor="middle" x="63.8341" y="-581" font-family="Helvetica,sans-Serif" font-size="14.00" fill="#000000">gini = 0.011</text>
<text text-anchor="middle" x="63.8341" y="-564.2" font-family="Helvetica,sans-Serif" font-size="14.00" fill="#000000">samples = 6317</text>
<text text-anchor="middle" x="63.8341" y="-547.4" font-family="Helvetica,sans-Serif" font-size="14.00" fill="#000000">value = [6282, 35]</text>
</g>
<!-- 3&#45;&gt;4 -->
<g id="edge4" class="edge">
<title>3&#45;&gt;4</title>
<path fill="none" stroke="#000000" d="M155.1136,-650.3528C143.3113,-640.8425 130.5348,-630.5473 118.3843,-620.7564"/>
<polygon fill="#000000" stroke="#000000" points="120.4892,-617.9576 110.5065,-614.4085 116.0971,-623.4083 120.4892,-617.9576"/>
</g>
<!-- 7 -->
<g id="node8" class="node">
<title>7</title>
<path fill="#399de5" stroke="#000000" d="M245.9371,-606.2014C245.9371,-606.2014 157.7311,-606.2014 157.7311,-606.2014 151.7311,-606.2014 145.7311,-600.2014 145.7311,-594.2014 145.7311,-594.2014 145.7311,-559.3986 145.7311,-559.3986 145.7311,-553.3986 151.7311,-547.3986 157.7311,-547.3986 157.7311,-547.3986 245.9371,-547.3986 245.9371,-547.3986 251.9371,-547.3986 257.9371,-553.3986 257.9371,-559.3986 257.9371,-559.3986 257.9371,-594.2014 257.9371,-594.2014 257.9371,-600.2014 251.9371,-606.2014 245.9371,-606.2014"/>
<text text-anchor="middle" x="201.8341" y="-589.4" font-family="Helvetica,sans-Serif" font-size="14.00" fill="#000000">gini = 0.0</text>
<text text-anchor="middle" x="201.8341" y="-572.6" font-family="Helvetica,sans-Serif" font-size="14.00" fill="#000000">samples = 547</text>
<text text-anchor="middle" x="201.8341" y="-555.8" font-family="Helvetica,sans-Serif" font-size="14.00" fill="#000000">value = [0, 547]</text>
</g>
<!-- 3&#45;&gt;7 -->
<g id="edge7" class="edge">
<title>3&#45;&gt;7</title>
<path fill="none" stroke="#000000" d="M201.8341,-650.3528C201.8341,-639.4662 201.8341,-627.551 201.8341,-616.5411"/>
<polygon fill="#000000" stroke="#000000" points="205.3342,-616.3258 201.8341,-606.3258 198.3342,-616.3259 205.3342,-616.3258"/>
</g>
<!-- 5 -->
<g id="node6" class="node">
<title>5</title>
<path fill="#e58139" stroke="#000000" d="M109.7198,-495.0014C109.7198,-495.0014 13.9484,-495.0014 13.9484,-495.0014 7.9484,-495.0014 1.9484,-489.0014 1.9484,-483.0014 1.9484,-483.0014 1.9484,-448.1986 1.9484,-448.1986 1.9484,-442.1986 7.9484,-436.1986 13.9484,-436.1986 13.9484,-436.1986 109.7198,-436.1986 109.7198,-436.1986 115.7198,-436.1986 121.7198,-442.1986 121.7198,-448.1986 121.7198,-448.1986 121.7198,-483.0014 121.7198,-483.0014 121.7198,-489.0014 115.7198,-495.0014 109.7198,-495.0014"/>
<text text-anchor="middle" x="61.8341" y="-478.2" font-family="Helvetica,sans-Serif" font-size="14.00" fill="#000000">gini = 0.0</text>
<text text-anchor="middle" x="61.8341" y="-461.4" font-family="Helvetica,sans-Serif" font-size="14.00" fill="#000000">samples = 6282</text>
<text text-anchor="middle" x="61.8341" y="-444.6" font-family="Helvetica,sans-Serif" font-size="14.00" fill="#000000">value = [6282, 0]</text>
</g>
<!-- 4&#45;&gt;5 -->
<g id="edge5" class="edge">
<title>4&#45;&gt;5</title>
<path fill="none" stroke="#000000" d="M63.157,-539.1528C62.9612,-528.2662 62.7469,-516.351 62.5489,-505.3411"/>
<polygon fill="#000000" stroke="#000000" points="66.0445,-505.0612 62.3651,-495.1258 59.0456,-505.1872 66.0445,-505.0612"/>
</g>
<!-- 6 -->
<g id="node7" class="node">
<title>6</title>
<path fill="#399de5" stroke="#000000" d="M232.155,-495.0014C232.155,-495.0014 151.5132,-495.0014 151.5132,-495.0014 145.5132,-495.0014 139.5132,-489.0014 139.5132,-483.0014 139.5132,-483.0014 139.5132,-448.1986 139.5132,-448.1986 139.5132,-442.1986 145.5132,-436.1986 151.5132,-436.1986 151.5132,-436.1986 232.155,-436.1986 232.155,-436.1986 238.155,-436.1986 244.155,-442.1986 244.155,-448.1986 244.155,-448.1986 244.155,-483.0014 244.155,-483.0014 244.155,-489.0014 238.155,-495.0014 232.155,-495.0014"/>
<text text-anchor="middle" x="191.8341" y="-478.2" font-family="Helvetica,sans-Serif" font-size="14.00" fill="#000000">gini = 0.0</text>
<text text-anchor="middle" x="191.8341" y="-461.4" font-family="Helvetica,sans-Serif" font-size="14.00" fill="#000000">samples = 35</text>
<text text-anchor="middle" x="191.8341" y="-444.6" font-family="Helvetica,sans-Serif" font-size="14.00" fill="#000000">value = [0, 35]</text>
</g>
<!-- 4&#45;&gt;6 -->
<g id="edge6" class="edge">
<title>4&#45;&gt;6</title>
<path fill="none" stroke="#000000" d="M107.1691,-539.1528C120.9922,-527.1439 136.2562,-513.8833 149.9728,-501.967"/>
<polygon fill="#000000" stroke="#000000" points="152.5938,-504.3263 157.8475,-495.1258 148.003,-499.042 152.5938,-504.3263"/>
</g>
<!-- 9 -->
<g id="node10" class="node">
<title>9</title>
<path fill="#e58139" stroke="#000000" d="M368.155,-606.2014C368.155,-606.2014 287.5132,-606.2014 287.5132,-606.2014 281.5132,-606.2014 275.5132,-600.2014 275.5132,-594.2014 275.5132,-594.2014 275.5132,-559.3986 275.5132,-559.3986 275.5132,-553.3986 281.5132,-547.3986 287.5132,-547.3986 287.5132,-547.3986 368.155,-547.3986 368.155,-547.3986 374.155,-547.3986 380.155,-553.3986 380.155,-559.3986 380.155,-559.3986 380.155,-594.2014 380.155,-594.2014 380.155,-600.2014 374.155,-606.2014 368.155,-606.2014"/>
<text text-anchor="middle" x="327.8341" y="-589.4" font-family="Helvetica,sans-Serif" font-size="14.00" fill="#000000">gini = 0.0</text>
<text text-anchor="middle" x="327.8341" y="-572.6" font-family="Helvetica,sans-Serif" font-size="14.00" fill="#000000">samples = 37</text>
<text text-anchor="middle" x="327.8341" y="-555.8" font-family="Helvetica,sans-Serif" font-size="14.00" fill="#000000">value = [37, 0]</text>
</g>
<!-- 8&#45;&gt;9 -->
<g id="edge9" class="edge">
<title>8&#45;&gt;9</title>
<path fill="none" stroke="#000000" d="M385.3799,-650.3528C376.3357,-638.7928 366.384,-626.073 357.3366,-614.5089"/>
<polygon fill="#000000" stroke="#000000" points="359.8529,-612.0451 350.9343,-606.3258 354.3397,-616.3585 359.8529,-612.0451"/>
</g>
<!-- 10 -->
<g id="node11" class="node">
<title>10</title>
<path fill="#3c9ee5" stroke="#000000" d="M513.5027,-614.5003C513.5027,-614.5003 410.1655,-614.5003 410.1655,-614.5003 404.1655,-614.5003 398.1655,-608.5003 398.1655,-602.5003 398.1655,-602.5003 398.1655,-551.0997 398.1655,-551.0997 398.1655,-545.0997 404.1655,-539.0997 410.1655,-539.0997 410.1655,-539.0997 513.5027,-539.0997 513.5027,-539.0997 519.5027,-539.0997 525.5027,-545.0997 525.5027,-551.0997 525.5027,-551.0997 525.5027,-602.5003 525.5027,-602.5003 525.5027,-608.5003 519.5027,-614.5003 513.5027,-614.5003"/>
<text text-anchor="middle" x="461.8341" y="-597.8" font-family="Helvetica,sans-Serif" font-size="14.00" fill="#000000">CNT &lt;= 32.5</text>
<text text-anchor="middle" x="461.8341" y="-581" font-family="Helvetica,sans-Serif" font-size="14.00" fill="#000000">gini = 0.025</text>
<text text-anchor="middle" x="461.8341" y="-564.2" font-family="Helvetica,sans-Serif" font-size="14.00" fill="#000000">samples = 5746</text>
<text text-anchor="middle" x="461.8341" y="-547.4" font-family="Helvetica,sans-Serif" font-size="14.00" fill="#000000">value = [73, 5673]</text>
</g>
<!-- 8&#45;&gt;10 -->
<g id="edge10" class="edge">
<title>8&#45;&gt;10</title>
<path fill="none" stroke="#000000" d="M430.7462,-650.3528C434.3447,-641.8388 438.2091,-632.6958 441.9484,-623.8486"/>
<polygon fill="#000000" stroke="#000000" points="445.2691,-624.9822 445.9384,-614.4085 438.8213,-622.2569 445.2691,-624.9822"/>
</g>
<!-- 11 -->
<g id="node12" class="node">
<title>11</title>
<path fill="#e68844" stroke="#000000" d="M439.8175,-503.3003C439.8175,-503.3003 343.8507,-503.3003 343.8507,-503.3003 337.8507,-503.3003 331.8507,-497.3003 331.8507,-491.3003 331.8507,-491.3003 331.8507,-439.8997 331.8507,-439.8997 331.8507,-433.8997 337.8507,-427.8997 343.8507,-427.8997 343.8507,-427.8997 439.8175,-427.8997 439.8175,-427.8997 445.8175,-427.8997 451.8175,-433.8997 451.8175,-439.8997 451.8175,-439.8997 451.8175,-491.3003 451.8175,-491.3003 451.8175,-497.3003 445.8175,-503.3003 439.8175,-503.3003"/>
<text text-anchor="middle" x="391.8341" y="-486.6" font-family="Helvetica,sans-Serif" font-size="14.00" fill="#000000">UTC &lt;= 51144.5</text>
<text text-anchor="middle" x="391.8341" y="-469.8" font-family="Helvetica,sans-Serif" font-size="14.00" fill="#000000">gini = 0.1</text>
<text text-anchor="middle" x="391.8341" y="-453" font-family="Helvetica,sans-Serif" font-size="14.00" fill="#000000">samples = 38</text>
<text text-anchor="middle" x="391.8341" y="-436.2" font-family="Helvetica,sans-Serif" font-size="14.00" fill="#000000">value = [36, 2]</text>
</g>
<!-- 10&#45;&gt;11 -->
<g id="edge11" class="edge">
<title>10&#45;&gt;11</title>
<path fill="none" stroke="#000000" d="M438.1353,-539.1528C432.6048,-530.3671 426.6525,-520.9115 420.9184,-511.8025"/>
<polygon fill="#000000" stroke="#000000" points="423.7979,-509.8067 415.5085,-503.2085 417.8739,-513.5359 423.7979,-509.8067"/>
</g>
<!-- 14 -->
<g id="node15" class="node">
<title>14</title>
<path fill="#3a9ee5" stroke="#000000" d="M585.5027,-503.3003C585.5027,-503.3003 482.1655,-503.3003 482.1655,-503.3003 476.1655,-503.3003 470.1655,-497.3003 470.1655,-491.3003 470.1655,-491.3003 470.1655,-439.8997 470.1655,-439.8997 470.1655,-433.8997 476.1655,-427.8997 482.1655,-427.8997 482.1655,-427.8997 585.5027,-427.8997 585.5027,-427.8997 591.5027,-427.8997 597.5027,-433.8997 597.5027,-439.8997 597.5027,-439.8997 597.5027,-491.3003 597.5027,-491.3003 597.5027,-497.3003 591.5027,-503.3003 585.5027,-503.3003"/>
<text text-anchor="middle" x="533.8341" y="-486.6" font-family="Helvetica,sans-Serif" font-size="14.00" fill="#000000">PM2.5 &lt;= 1.355</text>
<text text-anchor="middle" x="533.8341" y="-469.8" font-family="Helvetica,sans-Serif" font-size="14.00" fill="#000000">gini = 0.013</text>
<text text-anchor="middle" x="533.8341" y="-453" font-family="Helvetica,sans-Serif" font-size="14.00" fill="#000000">samples = 5708</text>
<text text-anchor="middle" x="533.8341" y="-436.2" font-family="Helvetica,sans-Serif" font-size="14.00" fill="#000000">value = [37, 5671]</text>
</g>
<!-- 10&#45;&gt;14 -->
<g id="edge14" class="edge">
<title>10&#45;&gt;14</title>
<path fill="none" stroke="#000000" d="M486.21,-539.1528C491.8986,-530.3671 498.0209,-520.9115 503.9188,-511.8025"/>
<polygon fill="#000000" stroke="#000000" points="506.9862,-513.5048 509.4833,-503.2085 501.1103,-509.7003 506.9862,-513.5048"/>
</g>
<!-- 12 -->
<g id="node13" class="node">
<title>12</title>
<path fill="#e58139" stroke="#000000" d="M316.155,-383.8014C316.155,-383.8014 235.5132,-383.8014 235.5132,-383.8014 229.5132,-383.8014 223.5132,-377.8014 223.5132,-371.8014 223.5132,-371.8014 223.5132,-336.9986 223.5132,-336.9986 223.5132,-330.9986 229.5132,-324.9986 235.5132,-324.9986 235.5132,-324.9986 316.155,-324.9986 316.155,-324.9986 322.155,-324.9986 328.155,-330.9986 328.155,-336.9986 328.155,-336.9986 328.155,-371.8014 328.155,-371.8014 328.155,-377.8014 322.155,-383.8014 316.155,-383.8014"/>
<text text-anchor="middle" x="275.8341" y="-367" font-family="Helvetica,sans-Serif" font-size="14.00" fill="#000000">gini = 0.0</text>
<text text-anchor="middle" x="275.8341" y="-350.2" font-family="Helvetica,sans-Serif" font-size="14.00" fill="#000000">samples = 36</text>
<text text-anchor="middle" x="275.8341" y="-333.4" font-family="Helvetica,sans-Serif" font-size="14.00" fill="#000000">value = [36, 0]</text>
</g>
<!-- 11&#45;&gt;12 -->
<g id="edge12" class="edge">
<title>11&#45;&gt;12</title>
<path fill="none" stroke="#000000" d="M352.5618,-427.9528C340.1516,-416.0561 326.46,-402.931 314.1198,-391.1014"/>
<polygon fill="#000000" stroke="#000000" points="316.2754,-388.3194 306.6344,-383.9258 311.4312,-393.3726 316.2754,-388.3194"/>
</g>
<!-- 13 -->
<g id="node14" class="node">
<title>13</title>
<path fill="#399de5" stroke="#000000" d="M429.873,-383.8014C429.873,-383.8014 357.7952,-383.8014 357.7952,-383.8014 351.7952,-383.8014 345.7952,-377.8014 345.7952,-371.8014 345.7952,-371.8014 345.7952,-336.9986 345.7952,-336.9986 345.7952,-330.9986 351.7952,-324.9986 357.7952,-324.9986 357.7952,-324.9986 429.873,-324.9986 429.873,-324.9986 435.873,-324.9986 441.873,-330.9986 441.873,-336.9986 441.873,-336.9986 441.873,-371.8014 441.873,-371.8014 441.873,-377.8014 435.873,-383.8014 429.873,-383.8014"/>
<text text-anchor="middle" x="393.8341" y="-367" font-family="Helvetica,sans-Serif" font-size="14.00" fill="#000000">gini = 0.0</text>
<text text-anchor="middle" x="393.8341" y="-350.2" font-family="Helvetica,sans-Serif" font-size="14.00" fill="#000000">samples = 2</text>
<text text-anchor="middle" x="393.8341" y="-333.4" font-family="Helvetica,sans-Serif" font-size="14.00" fill="#000000">value = [0, 2]</text>
</g>
<!-- 11&#45;&gt;13 -->
<g id="edge13" class="edge">
<title>11&#45;&gt;13</title>
<path fill="none" stroke="#000000" d="M392.5112,-427.9528C392.707,-417.0662 392.9213,-405.151 393.1193,-394.1411"/>
<polygon fill="#000000" stroke="#000000" points="396.6226,-393.9872 393.3031,-383.9258 389.6237,-393.8612 396.6226,-393.9872"/>
</g>
<!-- 15 -->
<g id="node16" class="node">
<title>15</title>
<path fill="#66b3eb" stroke="#000000" d="M591.3272,-392.1003C591.3272,-392.1003 474.341,-392.1003 474.341,-392.1003 468.341,-392.1003 462.341,-386.1003 462.341,-380.1003 462.341,-380.1003 462.341,-328.6997 462.341,-328.6997 462.341,-322.6997 468.341,-316.6997 474.341,-316.6997 474.341,-316.6997 591.3272,-316.6997 591.3272,-316.6997 597.3272,-316.6997 603.3272,-322.6997 603.3272,-328.6997 603.3272,-328.6997 603.3272,-380.1003 603.3272,-380.1003 603.3272,-386.1003 597.3272,-392.1003 591.3272,-392.1003"/>
<text text-anchor="middle" x="532.8341" y="-375.4" font-family="Helvetica,sans-Serif" font-size="14.00" fill="#000000">Raw H2 &lt;= 13150.5</text>
<text text-anchor="middle" x="532.8341" y="-358.6" font-family="Helvetica,sans-Serif" font-size="14.00" fill="#000000">gini = 0.3</text>
<text text-anchor="middle" x="532.8341" y="-341.8" font-family="Helvetica,sans-Serif" font-size="14.00" fill="#000000">samples = 163</text>
<text text-anchor="middle" x="532.8341" y="-325" font-family="Helvetica,sans-Serif" font-size="14.00" fill="#000000">value = [30, 133]</text>
</g>
<!-- 14&#45;&gt;15 -->
<g id="edge15" class="edge">
<title>14&#45;&gt;15</title>
<path fill="none" stroke="#000000" d="M533.4955,-427.9528C533.4206,-419.62 533.3403,-410.6845 533.2623,-402.0137"/>
<polygon fill="#000000" stroke="#000000" points="536.7622,-401.9766 533.1723,-392.0085 529.7625,-402.0396 536.7622,-401.9766"/>
</g>
<!-- 22 -->
<g id="node23" class="node">
<title>22</title>
<path fill="#399de5" stroke="#000000" d="M793.7198,-392.1003C793.7198,-392.1003 697.9484,-392.1003 697.9484,-392.1003 691.9484,-392.1003 685.9484,-386.1003 685.9484,-380.1003 685.9484,-380.1003 685.9484,-328.6997 685.9484,-328.6997 685.9484,-322.6997 691.9484,-316.6997 697.9484,-316.6997 697.9484,-316.6997 793.7198,-316.6997 793.7198,-316.6997 799.7198,-316.6997 805.7198,-322.6997 805.7198,-328.6997 805.7198,-328.6997 805.7198,-380.1003 805.7198,-380.1003 805.7198,-386.1003 799.7198,-392.1003 793.7198,-392.1003"/>
<text text-anchor="middle" x="745.8341" y="-375.4" font-family="Helvetica,sans-Serif" font-size="14.00" fill="#000000">NC0.5 &lt;= 9.075</text>
<text text-anchor="middle" x="745.8341" y="-358.6" font-family="Helvetica,sans-Serif" font-size="14.00" fill="#000000">gini = 0.003</text>
<text text-anchor="middle" x="745.8341" y="-341.8" font-family="Helvetica,sans-Serif" font-size="14.00" fill="#000000">samples = 5545</text>
<text text-anchor="middle" x="745.8341" y="-325" font-family="Helvetica,sans-Serif" font-size="14.00" fill="#000000">value = [7, 5538]</text>
</g>
<!-- 14&#45;&gt;22 -->
<g id="edge22" class="edge">
<title>14&#45;&gt;22</title>
<path fill="none" stroke="#000000" d="M597.7286,-432.0855C622.5941,-419.0429 651.1507,-404.0641 676.5122,-390.7613"/>
<polygon fill="#000000" stroke="#000000" points="678.4687,-393.6874 685.6986,-385.9428 675.2171,-387.4884 678.4687,-393.6874"/>
</g>
<!-- 16 -->
<g id="node17" class="node">
<title>16</title>
<path fill="#399de5" stroke="#000000" d="M399.9371,-272.6014C399.9371,-272.6014 311.7311,-272.6014 311.7311,-272.6014 305.7311,-272.6014 299.7311,-266.6014 299.7311,-260.6014 299.7311,-260.6014 299.7311,-225.7986 299.7311,-225.7986 299.7311,-219.7986 305.7311,-213.7986 311.7311,-213.7986 311.7311,-213.7986 399.9371,-213.7986 399.9371,-213.7986 405.9371,-213.7986 411.9371,-219.7986 411.9371,-225.7986 411.9371,-225.7986 411.9371,-260.6014 411.9371,-260.6014 411.9371,-266.6014 405.9371,-272.6014 399.9371,-272.6014"/>
<text text-anchor="middle" x="355.8341" y="-255.8" font-family="Helvetica,sans-Serif" font-size="14.00" fill="#000000">gini = 0.0</text>
<text text-anchor="middle" x="355.8341" y="-239" font-family="Helvetica,sans-Serif" font-size="14.00" fill="#000000">samples = 124</text>
<text text-anchor="middle" x="355.8341" y="-222.2" font-family="Helvetica,sans-Serif" font-size="14.00" fill="#000000">value = [0, 124]</text>
</g>
<!-- 15&#45;&gt;16 -->
<g id="edge16" class="edge">
<title>15&#45;&gt;16</title>
<path fill="none" stroke="#000000" d="M472.91,-316.7528C452.9038,-304.1839 430.7152,-290.244 411.0816,-277.9092"/>
<polygon fill="#000000" stroke="#000000" points="412.8781,-274.9044 402.5486,-272.5483 409.1543,-280.8318 412.8781,-274.9044"/>
</g>
<!-- 17 -->
<g id="node18" class="node">
<title>17</title>
<path fill="#eda774" stroke="#000000" d="M623.7077,-280.9003C623.7077,-280.9003 441.9605,-280.9003 441.9605,-280.9003 435.9605,-280.9003 429.9605,-274.9003 429.9605,-268.9003 429.9605,-268.9003 429.9605,-217.4997 429.9605,-217.4997 429.9605,-211.4997 435.9605,-205.4997 441.9605,-205.4997 441.9605,-205.4997 623.7077,-205.4997 623.7077,-205.4997 629.7077,-205.4997 635.7077,-211.4997 635.7077,-217.4997 635.7077,-217.4997 635.7077,-268.9003 635.7077,-268.9003 635.7077,-274.9003 629.7077,-280.9003 623.7077,-280.9003"/>
<text text-anchor="middle" x="532.8341" y="-264.2" font-family="Helvetica,sans-Serif" font-size="14.00" fill="#000000">Unnamed: 0 &lt;= 1654764672.0</text>
<text text-anchor="middle" x="532.8341" y="-247.4" font-family="Helvetica,sans-Serif" font-size="14.00" fill="#000000">gini = 0.355</text>
<text text-anchor="middle" x="532.8341" y="-230.6" font-family="Helvetica,sans-Serif" font-size="14.00" fill="#000000">samples = 39</text>
<text text-anchor="middle" x="532.8341" y="-213.8" font-family="Helvetica,sans-Serif" font-size="14.00" fill="#000000">value = [30, 9]</text>
</g>
<!-- 15&#45;&gt;17 -->
<g id="edge17" class="edge">
<title>15&#45;&gt;17</title>
<path fill="none" stroke="#000000" d="M532.8341,-316.7528C532.8341,-308.42 532.8341,-299.4845 532.8341,-290.8137"/>
<polygon fill="#000000" stroke="#000000" points="536.3342,-290.8084 532.8341,-280.8085 529.3342,-290.8085 536.3342,-290.8084"/>
</g>
<!-- 18 -->
<g id="node19" class="node">
<title>18</title>
<path fill="#e68540" stroke="#000000" d="M454.2765,-169.7003C454.2765,-169.7003 297.3917,-169.7003 297.3917,-169.7003 291.3917,-169.7003 285.3917,-163.7003 285.3917,-157.7003 285.3917,-157.7003 285.3917,-106.2997 285.3917,-106.2997 285.3917,-100.2997 291.3917,-94.2997 297.3917,-94.2997 297.3917,-94.2997 454.2765,-94.2997 454.2765,-94.2997 460.2765,-94.2997 466.2765,-100.2997 466.2765,-106.2997 466.2765,-106.2997 466.2765,-157.7003 466.2765,-157.7003 466.2765,-163.7003 460.2765,-169.7003 454.2765,-169.7003"/>
<text text-anchor="middle" x="375.8341" y="-153" font-family="Helvetica,sans-Serif" font-size="14.00" fill="#000000">Temperature[C] &lt;= 10.042</text>
<text text-anchor="middle" x="375.8341" y="-136.2" font-family="Helvetica,sans-Serif" font-size="14.00" fill="#000000">gini = 0.062</text>
<text text-anchor="middle" x="375.8341" y="-119.4" font-family="Helvetica,sans-Serif" font-size="14.00" fill="#000000">samples = 31</text>
<text text-anchor="middle" x="375.8341" y="-102.6" font-family="Helvetica,sans-Serif" font-size="14.00" fill="#000000">value = [30, 1]</text>
</g>
<!-- 17&#45;&gt;18 -->
<g id="edge18" class="edge">
<title>17&#45;&gt;18</title>
<path fill="none" stroke="#000000" d="M479.6811,-205.5528C465.9981,-195.8614 451.1641,-185.3548 437.1057,-175.3974"/>
<polygon fill="#000000" stroke="#000000" points="439.1158,-172.5322 428.9324,-169.6085 435.0699,-178.2446 439.1158,-172.5322"/>
</g>
<!-- 21 -->
<g id="node22" class="node">
<title>21</title>
<path fill="#399de5" stroke="#000000" d="M568.873,-161.4014C568.873,-161.4014 496.7952,-161.4014 496.7952,-161.4014 490.7952,-161.4014 484.7952,-155.4014 484.7952,-149.4014 484.7952,-149.4014 484.7952,-114.5986 484.7952,-114.5986 484.7952,-108.5986 490.7952,-102.5986 496.7952,-102.5986 496.7952,-102.5986 568.873,-102.5986 568.873,-102.5986 574.873,-102.5986 580.873,-108.5986 580.873,-114.5986 580.873,-114.5986 580.873,-149.4014 580.873,-149.4014 580.873,-155.4014 574.873,-161.4014 568.873,-161.4014"/>
<text text-anchor="middle" x="532.8341" y="-144.6" font-family="Helvetica,sans-Serif" font-size="14.00" fill="#000000">gini = 0.0</text>
<text text-anchor="middle" x="532.8341" y="-127.8" font-family="Helvetica,sans-Serif" font-size="14.00" fill="#000000">samples = 8</text>
<text text-anchor="middle" x="532.8341" y="-111" font-family="Helvetica,sans-Serif" font-size="14.00" fill="#000000">value = [0, 8]</text>
</g>
<!-- 17&#45;&gt;21 -->
<g id="edge21" class="edge">
<title>17&#45;&gt;21</title>
<path fill="none" stroke="#000000" d="M532.8341,-205.5528C532.8341,-194.6662 532.8341,-182.751 532.8341,-171.7411"/>
<polygon fill="#000000" stroke="#000000" points="536.3342,-171.5258 532.8341,-161.5258 529.3342,-171.5259 536.3342,-171.5258"/>
</g>
<!-- 19 -->
<g id="node20" class="node">
<title>19</title>
<path fill="#399de5" stroke="#000000" d="M352.873,-58.6014C352.873,-58.6014 280.7952,-58.6014 280.7952,-58.6014 274.7952,-58.6014 268.7952,-52.6014 268.7952,-46.6014 268.7952,-46.6014 268.7952,-11.7986 268.7952,-11.7986 268.7952,-5.7986 274.7952,.2014 280.7952,.2014 280.7952,.2014 352.873,.2014 352.873,.2014 358.873,.2014 364.873,-5.7986 364.873,-11.7986 364.873,-11.7986 364.873,-46.6014 364.873,-46.6014 364.873,-52.6014 358.873,-58.6014 352.873,-58.6014"/>
<text text-anchor="middle" x="316.8341" y="-41.8" font-family="Helvetica,sans-Serif" font-size="14.00" fill="#000000">gini = 0.0</text>
<text text-anchor="middle" x="316.8341" y="-25" font-family="Helvetica,sans-Serif" font-size="14.00" fill="#000000">samples = 1</text>
<text text-anchor="middle" x="316.8341" y="-8.2" font-family="Helvetica,sans-Serif" font-size="14.00" fill="#000000">value = [0, 1]</text>
</g>
<!-- 18&#45;&gt;19 -->
<g id="edge19" class="edge">
<title>18&#45;&gt;19</title>
<path fill="none" stroke="#000000" d="M354.1997,-94.3048C349.1715,-85.5437 343.8143,-76.2096 338.7731,-67.4259"/>
<polygon fill="#000000" stroke="#000000" points="341.6743,-65.4495 333.6609,-58.5186 335.6031,-68.9339 341.6743,-65.4495"/>
</g>
<!-- 20 -->
<g id="node21" class="node">
<title>20</title>
<path fill="#e58139" stroke="#000000" d="M475.155,-58.6014C475.155,-58.6014 394.5132,-58.6014 394.5132,-58.6014 388.5132,-58.6014 382.5132,-52.6014 382.5132,-46.6014 382.5132,-46.6014 382.5132,-11.7986 382.5132,-11.7986 382.5132,-5.7986 388.5132,.2014 394.5132,.2014 394.5132,.2014 475.155,.2014 475.155,.2014 481.155,.2014 487.155,-5.7986 487.155,-11.7986 487.155,-11.7986 487.155,-46.6014 487.155,-46.6014 487.155,-52.6014 481.155,-58.6014 475.155,-58.6014"/>
<text text-anchor="middle" x="434.8341" y="-41.8" font-family="Helvetica,sans-Serif" font-size="14.00" fill="#000000">gini = 0.0</text>
<text text-anchor="middle" x="434.8341" y="-25" font-family="Helvetica,sans-Serif" font-size="14.00" fill="#000000">samples = 30</text>
<text text-anchor="middle" x="434.8341" y="-8.2" font-family="Helvetica,sans-Serif" font-size="14.00" fill="#000000">value = [30, 0]</text>
</g>
<!-- 18&#45;&gt;20 -->
<g id="edge20" class="edge">
<title>18&#45;&gt;20</title>
<path fill="none" stroke="#000000" d="M397.4685,-94.3048C402.4967,-85.5437 407.8539,-76.2096 412.8951,-67.4259"/>
<polygon fill="#000000" stroke="#000000" points="416.0651,-68.9339 418.0073,-58.5186 409.9939,-65.4495 416.0651,-68.9339"/>
</g>
<!-- 23 -->
<g id="node24" class="node">
<title>23</title>
<path fill="#44a3e6" stroke="#000000" d="M804.3272,-280.9003C804.3272,-280.9003 687.341,-280.9003 687.341,-280.9003 681.341,-280.9003 675.341,-274.9003 675.341,-268.9003 675.341,-268.9003 675.341,-217.4997 675.341,-217.4997 675.341,-211.4997 681.341,-205.4997 687.341,-205.4997 687.341,-205.4997 804.3272,-205.4997 804.3272,-205.4997 810.3272,-205.4997 816.3272,-211.4997 816.3272,-217.4997 816.3272,-217.4997 816.3272,-268.9003 816.3272,-268.9003 816.3272,-274.9003 810.3272,-280.9003 804.3272,-280.9003"/>
<text text-anchor="middle" x="745.8341" y="-264.2" font-family="Helvetica,sans-Serif" font-size="14.00" fill="#000000">Raw H2 &lt;= 13173.5</text>
<text text-anchor="middle" x="745.8341" y="-247.4" font-family="Helvetica,sans-Serif" font-size="14.00" fill="#000000">gini = 0.102</text>
<text text-anchor="middle" x="745.8341" y="-230.6" font-family="Helvetica,sans-Serif" font-size="14.00" fill="#000000">samples = 37</text>
<text text-anchor="middle" x="745.8341" y="-213.8" font-family="Helvetica,sans-Serif" font-size="14.00" fill="#000000">value = [2, 35]</text>
</g>
<!-- 22&#45;&gt;23 -->
<g id="edge23" class="edge">
<title>22&#45;&gt;23</title>
<path fill="none" stroke="#000000" d="M745.8341,-316.7528C745.8341,-308.42 745.8341,-299.4845 745.8341,-290.8137"/>
<polygon fill="#000000" stroke="#000000" points="749.3342,-290.8084 745.8341,-280.8085 742.3342,-290.8085 749.3342,-290.8084"/>
</g>
<!-- 26 -->
<g id="node27" class="node">
<title>26</title>
<path fill="#399de5" stroke="#000000" d="M972.7198,-280.9003C972.7198,-280.9003 876.9484,-280.9003 876.9484,-280.9003 870.9484,-280.9003 864.9484,-274.9003 864.9484,-268.9003 864.9484,-268.9003 864.9484,-217.4997 864.9484,-217.4997 864.9484,-211.4997 870.9484,-205.4997 876.9484,-205.4997 876.9484,-205.4997 972.7198,-205.4997 972.7198,-205.4997 978.7198,-205.4997 984.7198,-211.4997 984.7198,-217.4997 984.7198,-217.4997 984.7198,-268.9003 984.7198,-268.9003 984.7198,-274.9003 978.7198,-280.9003 972.7198,-280.9003"/>
<text text-anchor="middle" x="924.8341" y="-264.2" font-family="Helvetica,sans-Serif" font-size="14.00" fill="#000000">CNT &lt;= 3177.5</text>
<text text-anchor="middle" x="924.8341" y="-247.4" font-family="Helvetica,sans-Serif" font-size="14.00" fill="#000000">gini = 0.002</text>
<text text-anchor="middle" x="924.8341" y="-230.6" font-family="Helvetica,sans-Serif" font-size="14.00" fill="#000000">samples = 5508</text>
<text text-anchor="middle" x="924.8341" y="-213.8" font-family="Helvetica,sans-Serif" font-size="14.00" fill="#000000">value = [5, 5503]</text>
</g>
<!-- 22&#45;&gt;26 -->
<g id="edge26" class="edge">
<title>22&#45;&gt;26</title>
<path fill="none" stroke="#000000" d="M805.9365,-317.0627C822.1099,-307.0152 839.7242,-296.0727 856.3186,-285.7638"/>
<polygon fill="#000000" stroke="#000000" points="858.2429,-288.6888 864.8904,-280.4388 854.5491,-282.7427 858.2429,-288.6888"/>
</g>
<!-- 24 -->
<g id="node25" class="node">
<title>24</title>
<path fill="#399de5" stroke="#000000" d="M691.155,-161.4014C691.155,-161.4014 610.5132,-161.4014 610.5132,-161.4014 604.5132,-161.4014 598.5132,-155.4014 598.5132,-149.4014 598.5132,-149.4014 598.5132,-114.5986 598.5132,-114.5986 598.5132,-108.5986 604.5132,-102.5986 610.5132,-102.5986 610.5132,-102.5986 691.155,-102.5986 691.155,-102.5986 697.155,-102.5986 703.155,-108.5986 703.155,-114.5986 703.155,-114.5986 703.155,-149.4014 703.155,-149.4014 703.155,-155.4014 697.155,-161.4014 691.155,-161.4014"/>
<text text-anchor="middle" x="650.8341" y="-144.6" font-family="Helvetica,sans-Serif" font-size="14.00" fill="#000000">gini = 0.0</text>
<text text-anchor="middle" x="650.8341" y="-127.8" font-family="Helvetica,sans-Serif" font-size="14.00" fill="#000000">samples = 35</text>
<text text-anchor="middle" x="650.8341" y="-111" font-family="Helvetica,sans-Serif" font-size="14.00" fill="#000000">value = [0, 35]</text>
</g>
<!-- 23&#45;&gt;24 -->
<g id="edge24" class="edge">
<title>23&#45;&gt;24</title>
<path fill="none" stroke="#000000" d="M713.6714,-205.5528C703.6997,-193.8806 692.7177,-181.0259 682.762,-169.3724"/>
<polygon fill="#000000" stroke="#000000" points="685.2152,-166.8556 676.0585,-161.5258 679.8929,-171.4025 685.2152,-166.8556"/>
</g>
<!-- 25 -->
<g id="node26" class="node">
<title>25</title>
<path fill="#e58139" stroke="#000000" d="M804.873,-161.4014C804.873,-161.4014 732.7952,-161.4014 732.7952,-161.4014 726.7952,-161.4014 720.7952,-155.4014 720.7952,-149.4014 720.7952,-149.4014 720.7952,-114.5986 720.7952,-114.5986 720.7952,-108.5986 726.7952,-102.5986 732.7952,-102.5986 732.7952,-102.5986 804.873,-102.5986 804.873,-102.5986 810.873,-102.5986 816.873,-108.5986 816.873,-114.5986 816.873,-114.5986 816.873,-149.4014 816.873,-149.4014 816.873,-155.4014 810.873,-161.4014 804.873,-161.4014"/>
<text text-anchor="middle" x="768.8341" y="-144.6" font-family="Helvetica,sans-Serif" font-size="14.00" fill="#000000">gini = 0.0</text>
<text text-anchor="middle" x="768.8341" y="-127.8" font-family="Helvetica,sans-Serif" font-size="14.00" fill="#000000">samples = 2</text>
<text text-anchor="middle" x="768.8341" y="-111" font-family="Helvetica,sans-Serif" font-size="14.00" fill="#000000">value = [2, 0]</text>
</g>
<!-- 23&#45;&gt;25 -->
<g id="edge25" class="edge">
<title>23&#45;&gt;25</title>
<path fill="none" stroke="#000000" d="M753.6209,-205.5528C755.8958,-194.554 758.3879,-182.5052 760.6846,-171.4009"/>
<polygon fill="#000000" stroke="#000000" points="764.129,-172.0275 762.7271,-161.5258 757.2741,-170.6096 764.129,-172.0275"/>
</g>
<!-- 27 -->
<g id="node28" class="node">
<title>27</title>
<path fill="#3b9ee5" stroke="#000000" d="M1002.7398,-169.7003C1002.7398,-169.7003 846.9284,-169.7003 846.9284,-169.7003 840.9284,-169.7003 834.9284,-163.7003 834.9284,-157.7003 834.9284,-157.7003 834.9284,-106.2997 834.9284,-106.2997 834.9284,-100.2997 840.9284,-94.2997 846.9284,-94.2997 846.9284,-94.2997 1002.7398,-94.2997 1002.7398,-94.2997 1008.7398,-94.2997 1014.7398,-100.2997 1014.7398,-106.2997 1014.7398,-106.2997 1014.7398,-157.7003 1014.7398,-157.7003 1014.7398,-163.7003 1008.7398,-169.7003 1002.7398,-169.7003"/>
<text text-anchor="middle" x="924.8341" y="-153" font-family="Helvetica,sans-Serif" font-size="14.00" fill="#000000">Pressure[hPa] &lt;= 935.418</text>
<text text-anchor="middle" x="924.8341" y="-136.2" font-family="Helvetica,sans-Serif" font-size="14.00" fill="#000000">gini = 0.017</text>
<text text-anchor="middle" x="924.8341" y="-119.4" font-family="Helvetica,sans-Serif" font-size="14.00" fill="#000000">samples = 574</text>
<text text-anchor="middle" x="924.8341" y="-102.6" font-family="Helvetica,sans-Serif" font-size="14.00" fill="#000000">value = [5, 569]</text>
</g>
<!-- 26&#45;&gt;27 -->
<g id="edge27" class="edge">
<title>26&#45;&gt;27</title>
<path fill="none" stroke="#000000" d="M924.8341,-205.5528C924.8341,-197.22 924.8341,-188.2845 924.8341,-179.6137"/>
<polygon fill="#000000" stroke="#000000" points="928.3342,-179.6084 924.8341,-169.6085 921.3342,-179.6085 928.3342,-179.6084"/>
</g>
<!-- 30 -->
<g id="node31" class="node">
<title>30</title>
<path fill="#399de5" stroke="#000000" d="M1140.7198,-161.4014C1140.7198,-161.4014 1044.9484,-161.4014 1044.9484,-161.4014 1038.9484,-161.4014 1032.9484,-155.4014 1032.9484,-149.4014 1032.9484,-149.4014 1032.9484,-114.5986 1032.9484,-114.5986 1032.9484,-108.5986 1038.9484,-102.5986 1044.9484,-102.5986 1044.9484,-102.5986 1140.7198,-102.5986 1140.7198,-102.5986 1146.7198,-102.5986 1152.7198,-108.5986 1152.7198,-114.5986 1152.7198,-114.5986 1152.7198,-149.4014 1152.7198,-149.4014 1152.7198,-155.4014 1146.7198,-161.4014 1140.7198,-161.4014"/>
<text text-anchor="middle" x="1092.8341" y="-144.6" font-family="Helvetica,sans-Serif" font-size="14.00" fill="#000000">gini = 0.0</text>
<text text-anchor="middle" x="1092.8341" y="-127.8" font-family="Helvetica,sans-Serif" font-size="14.00" fill="#000000">samples = 4934</text>
<text text-anchor="middle" x="1092.8341" y="-111" font-family="Helvetica,sans-Serif" font-size="14.00" fill="#000000">value = [0, 4934]</text>
</g>
<!-- 26&#45;&gt;30 -->
<g id="edge30" class="edge">
<title>26&#45;&gt;30</title>
<path fill="none" stroke="#000000" d="M981.7112,-205.5528C1000.6149,-193.0403 1021.5716,-179.169 1040.1449,-166.8752"/>
<polygon fill="#000000" stroke="#000000" points="1042.088,-169.7864 1048.4949,-161.3483 1038.2243,-163.9492 1042.088,-169.7864"/>
</g>
<!-- 28 -->
<g id="node29" class="node">
<title>28</title>
<path fill="#399de5" stroke="#000000" d="M907.9371,-58.6014C907.9371,-58.6014 819.7311,-58.6014 819.7311,-58.6014 813.7311,-58.6014 807.7311,-52.6014 807.7311,-46.6014 807.7311,-46.6014 807.7311,-11.7986 807.7311,-11.7986 807.7311,-5.7986 813.7311,.2014 819.7311,.2014 819.7311,.2014 907.9371,.2014 907.9371,.2014 913.9371,.2014 919.9371,-5.7986 919.9371,-11.7986 919.9371,-11.7986 919.9371,-46.6014 919.9371,-46.6014 919.9371,-52.6014 913.9371,-58.6014 907.9371,-58.6014"/>
<text text-anchor="middle" x="863.8341" y="-41.8" font-family="Helvetica,sans-Serif" font-size="14.00" fill="#000000">gini = 0.0</text>
<text text-anchor="middle" x="863.8341" y="-25" font-family="Helvetica,sans-Serif" font-size="14.00" fill="#000000">samples = 569</text>
<text text-anchor="middle" x="863.8341" y="-8.2" font-family="Helvetica,sans-Serif" font-size="14.00" fill="#000000">value = [0, 569]</text>
</g>
<!-- 27&#45;&gt;28 -->
<g id="edge28" class="edge">
<title>27&#45;&gt;28</title>
<path fill="none" stroke="#000000" d="M902.4663,-94.3048C897.2129,-85.4515 891.6123,-76.013 886.3523,-67.1487"/>
<polygon fill="#000000" stroke="#000000" points="889.3444,-65.3325 881.2313,-58.5186 883.3245,-68.9047 889.3444,-65.3325"/>
</g>
<!-- 29 -->
<g id="node30" class="node">
<title>29</title>
<path fill="#e58139" stroke="#000000" d="M1021.873,-58.6014C1021.873,-58.6014 949.7952,-58.6014 949.7952,-58.6014 943.7952,-58.6014 937.7952,-52.6014 937.7952,-46.6014 937.7952,-46.6014 937.7952,-11.7986 937.7952,-11.7986 937.7952,-5.7986 943.7952,.2014 949.7952,.2014 949.7952,.2014 1021.873,.2014 1021.873,.2014 1027.873,.2014 1033.873,-5.7986 1033.873,-11.7986 1033.873,-11.7986 1033.873,-46.6014 1033.873,-46.6014 1033.873,-52.6014 1027.873,-58.6014 1021.873,-58.6014"/>
<text text-anchor="middle" x="985.8341" y="-41.8" font-family="Helvetica,sans-Serif" font-size="14.00" fill="#000000">gini = 0.0</text>
<text text-anchor="middle" x="985.8341" y="-25" font-family="Helvetica,sans-Serif" font-size="14.00" fill="#000000">samples = 5</text>
<text text-anchor="middle" x="985.8341" y="-8.2" font-family="Helvetica,sans-Serif" font-size="14.00" fill="#000000">value = [5, 0]</text>
</g>
<!-- 27&#45;&gt;29 -->
<g id="edge29" class="edge">
<title>27&#45;&gt;29</title>
<path fill="none" stroke="#000000" d="M947.2019,-94.3048C952.4553,-85.4515 958.0559,-76.013 963.3159,-67.1487"/>
<polygon fill="#000000" stroke="#000000" points="966.3437,-68.9047 968.4369,-58.5186 960.3238,-65.3325 966.3437,-68.9047"/>
</g>
<!-- 32 -->
<g id="node33" class="node">
<title>32</title>
<path fill="#f6d5bd" stroke="#000000" d="M629.8733,-725.7003C629.8733,-725.7003 553.7949,-725.7003 553.7949,-725.7003 547.7949,-725.7003 541.7949,-719.7003 541.7949,-713.7003 541.7949,-713.7003 541.7949,-662.2997 541.7949,-662.2997 541.7949,-656.2997 547.7949,-650.2997 553.7949,-650.2997 553.7949,-650.2997 629.8733,-650.2997 629.8733,-650.2997 635.8733,-650.2997 641.8733,-656.2997 641.8733,-662.2997 641.8733,-662.2997 641.8733,-713.7003 641.8733,-713.7003 641.8733,-719.7003 635.8733,-725.7003 629.8733,-725.7003"/>
<text text-anchor="middle" x="591.8341" y="-709" font-family="Helvetica,sans-Serif" font-size="14.00" fill="#000000">PM2.5 &lt;= 2.3</text>
<text text-anchor="middle" x="591.8341" y="-692.2" font-family="Helvetica,sans-Serif" font-size="14.00" fill="#000000">gini = 0.48</text>
<text text-anchor="middle" x="591.8341" y="-675.4" font-family="Helvetica,sans-Serif" font-size="14.00" fill="#000000">samples = 5</text>
<text text-anchor="middle" x="591.8341" y="-658.6" font-family="Helvetica,sans-Serif" font-size="14.00" fill="#000000">value = [3, 2]</text>
</g>
<!-- 31&#45;&gt;32 -->
<g id="edge32" class="edge">
<title>31&#45;&gt;32</title>
<path fill="none" stroke="#000000" d="M591.8341,-761.5528C591.8341,-753.22 591.8341,-744.2845 591.8341,-735.6137"/>
<polygon fill="#000000" stroke="#000000" points="595.3342,-735.6084 591.8341,-725.6085 588.3342,-735.6085 595.3342,-735.6084"/>
</g>
<!-- 35 -->
<g id="node36" class="node">
<title>35</title>
<path fill="#e58139" stroke="#000000" d="M775.5027,-717.4014C775.5027,-717.4014 672.1655,-717.4014 672.1655,-717.4014 666.1655,-717.4014 660.1655,-711.4014 660.1655,-705.4014 660.1655,-705.4014 660.1655,-670.5986 660.1655,-670.5986 660.1655,-664.5986 666.1655,-658.5986 672.1655,-658.5986 672.1655,-658.5986 775.5027,-658.5986 775.5027,-658.5986 781.5027,-658.5986 787.5027,-664.5986 787.5027,-670.5986 787.5027,-670.5986 787.5027,-705.4014 787.5027,-705.4014 787.5027,-711.4014 781.5027,-717.4014 775.5027,-717.4014"/>
<text text-anchor="middle" x="723.8341" y="-700.6" font-family="Helvetica,sans-Serif" font-size="14.00" fill="#000000">gini = 0.0</text>
<text text-anchor="middle" x="723.8341" y="-683.8" font-family="Helvetica,sans-Serif" font-size="14.00" fill="#000000">samples = 11478</text>
<text text-anchor="middle" x="723.8341" y="-667" font-family="Helvetica,sans-Serif" font-size="14.00" fill="#000000">value = [11478, 0]</text>
</g>
<!-- 31&#45;&gt;35 -->
<g id="edge35" class="edge">
<title>31&#45;&gt;35</title>
<path fill="none" stroke="#000000" d="M636.5233,-761.5528C650.9117,-749.4316 666.8138,-736.0353 681.0608,-724.0332"/>
<polygon fill="#000000" stroke="#000000" points="683.3925,-726.6454 688.7854,-717.5258 678.8825,-721.2919 683.3925,-726.6454"/>
</g>
<!-- 33 -->
<g id="node34" class="node">
<title>33</title>
<path fill="#e58139" stroke="#000000" d="M627.873,-606.2014C627.873,-606.2014 555.7952,-606.2014 555.7952,-606.2014 549.7952,-606.2014 543.7952,-600.2014 543.7952,-594.2014 543.7952,-594.2014 543.7952,-559.3986 543.7952,-559.3986 543.7952,-553.3986 549.7952,-547.3986 555.7952,-547.3986 555.7952,-547.3986 627.873,-547.3986 627.873,-547.3986 633.873,-547.3986 639.873,-553.3986 639.873,-559.3986 639.873,-559.3986 639.873,-594.2014 639.873,-594.2014 639.873,-600.2014 633.873,-606.2014 627.873,-606.2014"/>
<text text-anchor="middle" x="591.8341" y="-589.4" font-family="Helvetica,sans-Serif" font-size="14.00" fill="#000000">gini = 0.0</text>
<text text-anchor="middle" x="591.8341" y="-572.6" font-family="Helvetica,sans-Serif" font-size="14.00" fill="#000000">samples = 3</text>
<text text-anchor="middle" x="591.8341" y="-555.8" font-family="Helvetica,sans-Serif" font-size="14.00" fill="#000000">value = [3, 0]</text>
</g>
<!-- 32&#45;&gt;33 -->
<g id="edge33" class="edge">
<title>32&#45;&gt;33</title>
<path fill="none" stroke="#000000" d="M591.8341,-650.3528C591.8341,-639.4662 591.8341,-627.551 591.8341,-616.5411"/>
<polygon fill="#000000" stroke="#000000" points="595.3342,-616.3258 591.8341,-606.3258 588.3342,-616.3259 595.3342,-616.3258"/>
</g>
<!-- 34 -->
<g id="node35" class="node">
<title>34</title>
<path fill="#399de5" stroke="#000000" d="M742.873,-606.2014C742.873,-606.2014 670.7952,-606.2014 670.7952,-606.2014 664.7952,-606.2014 658.7952,-600.2014 658.7952,-594.2014 658.7952,-594.2014 658.7952,-559.3986 658.7952,-559.3986 658.7952,-553.3986 664.7952,-547.3986 670.7952,-547.3986 670.7952,-547.3986 742.873,-547.3986 742.873,-547.3986 748.873,-547.3986 754.873,-553.3986 754.873,-559.3986 754.873,-559.3986 754.873,-594.2014 754.873,-594.2014 754.873,-600.2014 748.873,-606.2014 742.873,-606.2014"/>
<text text-anchor="middle" x="706.8341" y="-589.4" font-family="Helvetica,sans-Serif" font-size="14.00" fill="#000000">gini = 0.0</text>
<text text-anchor="middle" x="706.8341" y="-572.6" font-family="Helvetica,sans-Serif" font-size="14.00" fill="#000000">samples = 2</text>
<text text-anchor="middle" x="706.8341" y="-555.8" font-family="Helvetica,sans-Serif" font-size="14.00" fill="#000000">value = [0, 2]</text>
</g>
<!-- 32&#45;&gt;34 -->
<g id="edge34" class="edge">
<title>32&#45;&gt;34</title>
<path fill="none" stroke="#000000" d="M630.7679,-650.3528C643.071,-638.4561 656.6446,-625.331 668.8785,-613.5014"/>
<polygon fill="#000000" stroke="#000000" points="671.5434,-615.7933 676.2993,-606.3258 666.6775,-610.7611 671.5434,-615.7933"/>
</g>
</g>
</svg>
